<?xml version="1.0" standalone="no"?>
<!DOCTYPE svg PUBLIC "-//W3C//DTD SVG 20010904//EN"
 "http://www.w3.org/TR/2001/REC-SVG-20010904/DTD/svg10.dtd">
<svg version="1.0" xmlns="http://www.w3.org/2000/svg"
 width="400.000000pt" height="400.000000pt" viewBox="0 0 400.000000 400.000000"
 preserveAspectRatio="xMidYMid meet">
<metadata>
Created by potrace 1.14, written by Peter Selinger 2001-2017
</metadata>
<g transform="translate(0.000000,400.000000) scale(0.100000,-0.100000)"
fill="#000000" stroke="none">
<path d="M1668 3526 c-20 -7 -62 -35 -92 -61 -31 -26 -56 -43 -56 -38 0 5 -14
14 -32 21 -31 11 -31 11 -12 -8 52 -53 51 -69 -2 -27 l-29 22 23 -32 c27 -38
27 -43 5 -43 -10 0 -29 -6 -43 -13 -16 -8 -40 -10 -65 -6 -51 9 -62 4 -69 -32
-4 -20 -11 -29 -25 -29 -22 0 -41 27 -34 48 8 20 -32 14 -71 -13 l-36 -24 0
33 c0 32 2 34 42 40 28 5 44 3 46 -4 5 -14 32 7 32 25 0 18 26 37 69 52 47 17
56 16 41 -2 -7 -8 -20 -15 -29 -15 -10 0 -28 -12 -42 -26 l-24 -26 28 13 c15
7 27 16 27 21 0 4 6 8 14 8 8 0 23 8 35 18 16 14 18 20 8 32 -15 19 -67 43
-67 31 0 -5 6 -11 13 -14 9 -3 9 -8 -2 -21 -11 -13 -23 -15 -58 -10 -28 4 -43
3 -43 -5 0 -7 -8 -8 -24 -1 -17 6 -26 5 -30 -3 -2 -7 -2 3 1 21 5 29 3 32 -20
32 -14 0 -33 3 -42 7 -14 5 -16 3 -8 -13 12 -23 6 -44 -12 -44 -11 0 -12 -7
-5 -27 15 -49 20 -92 10 -98 -15 -9 -52 47 -45 72 5 21 3 22 -25 17 -18 -4
-30 -2 -30 4 0 6 -2 17 -5 24 -4 10 10 22 40 38 25 13 45 26 45 29 0 8 -113 1
-125 -8 -8 -6 -76 -32 -124 -47 -11 -4 -11 -8 3 -22 9 -10 16 -24 16 -30 0
-16 57 -15 63 1 2 6 4 0 4 -14 0 -19 -7 -28 -31 -38 -27 -10 -29 -13 -13 -22
9 -6 15 -14 12 -19 -7 -11 30 -32 39 -23 3 3 6 1 6 -6 0 -8 5 -9 19 -2 10 6
21 8 24 4 4 -3 14 0 23 8 19 16 134 19 134 4 0 -6 -17 -17 -37 -24 -62 -22
-118 -87 -111 -128 2 -10 -9 -23 -25 -32 -28 -16 -29 -15 -59 19 -26 29 -28
30 -14 7 17 -28 17 -28 -4 -17 -24 13 -35 6 -43 -25 -3 -13 -5 -8 -6 13 -1 22
-5 31 -12 26 -15 -9 -29 15 -29 51 0 21 -3 26 -9 16 -7 -11 -9 -11 -14 0 -3
10 -7 8 -12 -6 -3 -11 -11 -28 -16 -37 -5 -10 -9 -25 -9 -33 0 -8 -7 -15 -15
-15 -13 0 -14 -10 -8 -57 4 -32 7 -66 7 -75 0 -25 8 -23 60 17 61 47 142 91
194 106 33 10 42 17 43 36 1 12 2 28 3 33 2 19 81 81 109 87 16 3 38 19 50 34
22 31 57 39 57 14 0 -8 -3 -15 -7 -15 -5 0 -32 -23 -62 -51 -40 -39 -50 -53
-40 -60 10 -6 9 -10 -6 -15 -24 -10 -49 -33 -42 -40 2 -3 54 -14 113 -25 60
-10 116 -22 125 -24 12 -4 27 13 54 60 21 36 74 100 116 142 43 43 73 80 68
84 -6 3 -4 11 6 19 12 10 15 10 15 -4 0 -14 4 -13 33 4 17 11 32 25 32 32 0 7
9 12 20 11 10 -1 30 4 45 12 14 7 44 16 68 20 55 9 54 27 -5 57 -39 18 -44 24
-26 26 12 2 35 -4 52 -12 42 -22 61 -19 32 4 -27 23 -87 26 -143 6z m-737 -83
c-4 -17 -15 -29 -27 -31 -16 -3 -17 -1 -4 8 12 9 12 13 2 17 -10 4 -10 8 -1
19 20 25 38 17 30 -13z m87 -102 c26 -2 10 -20 -23 -27 -19 -3 -35 -9 -35 -13
0 -12 -53 -7 -57 6 -4 12 33 29 56 24 7 -1 11 2 7 7 -3 5 5 7 17 6 12 -1 28
-3 35 -3z m507 0 c6 -11 -25 -31 -49 -31 -20 0 -10 27 12 33 28 8 31 7 37 -2z
m-167 -63 c-6 -16 -36 -34 -44 -25 -9 9 15 37 33 37 8 0 13 -5 11 -12z m-638
-192 c0 -3 -4 -8 -10 -11 -5 -3 -10 -1 -10 4 0 6 5 11 10 11 6 0 10 -2 10 -4z
m132 -28 c-7 -7 -12 -8 -12 -2 0 14 12 26 19 19 2 -3 -1 -11 -7 -17z m-68 -49
c-48 -38 -52 -37 -17 4 15 19 34 32 41 29 7 -2 -2 -16 -24 -33z m-24 16 c-7
-9 -15 -13 -19 -10 -3 3 1 10 9 15 21 14 24 12 10 -5z"/>
<path d="M1485 3490 c-11 -4 -29 -6 -40 -4 -13 3 -25 -3 -33 -16 -7 -11 -8
-20 -3 -20 6 0 12 4 15 9 3 4 28 11 56 15 28 4 48 11 45 16 -7 12 -13 12 -40
0z"/>
<path d="M1990 3480 c0 -5 6 -10 13 -10 21 -1 -15 -17 -53 -24 -19 -4 -52 -22
-74 -41 -42 -38 -61 -43 -70 -20 -13 35 -52 36 -126 3 -38 -17 -70 -34 -70
-38 0 -4 23 -10 51 -12 27 -3 56 -11 62 -17 9 -10 -5 -11 -68 -6 l-80 7 -70
-69 c-38 -37 -78 -78 -87 -90 -15 -20 -15 -22 1 -37 10 -9 23 -16 29 -16 7 0
12 -4 12 -8 0 -5 27 -21 61 -37 82 -37 117 -69 129 -116 17 -63 -4 -101 -69
-130 -17 -8 -41 -29 -52 -48 -16 -27 -22 -31 -34 -21 -13 11 -15 7 -15 -24 0
-20 -4 -36 -8 -36 -4 0 -8 -12 -7 -27 0 -24 -5 -29 -30 -31 -16 -2 -37 -10
-46 -18 -13 -11 -20 -12 -42 -1 -24 11 -27 17 -27 65 0 29 5 63 11 74 11 20
12 20 25 -10 9 -24 17 -30 30 -25 12 4 15 2 12 -8 -3 -8 -11 -14 -19 -14 -17
0 -21 -42 -5 -48 6 -2 26 -2 44 0 42 7 41 24 -3 93 -38 61 -42 85 -20 133 29
64 98 147 122 147 23 0 5 19 -39 41 -22 11 -50 29 -61 40 -12 10 -23 19 -26
19 -15 -1 -61 -76 -61 -98 0 -14 3 -22 6 -19 4 3 15 2 24 -3 21 -11 46 12 34
31 -4 7 -3 9 3 6 6 -4 16 0 23 8 18 22 28 18 34 -13 6 -23 -1 -36 -45 -82 -35
-38 -50 -48 -47 -34 5 21 5 21 -23 5 -16 -9 -24 -17 -19 -19 16 -6 12 -36 -7
-58 -16 -16 -18 -41 -18 -189 0 -192 8 -248 41 -319 36 -75 27 -104 -14 -51
l-20 26 -7 -33 c-16 -70 -101 -167 -184 -209 -37 -20 -61 -24 -126 -24 -137 1
-243 66 -331 202 -67 105 -88 160 -91 248 -4 124 -12 165 -31 157 -11 -4 -14
-1 -9 11 4 10 2 30 -4 45 -9 24 -12 25 -20 10 -11 -21 -39 -24 -39 -5 -2 67
-15 138 -31 165 -21 37 -24 52 -9 52 6 0 21 -22 34 -50 13 -27 29 -57 37 -67
8 -9 9 -14 2 -10 -8 5 -8 1 0 -18 7 -14 15 -25 18 -25 10 0 0 65 -11 68 -5 2
-7 9 -4 16 7 17 -55 92 -89 108 -15 7 -27 19 -27 26 0 9 -6 9 -24 -3 -19 -13
-25 -13 -30 -3 -3 7 -3 -3 0 -22 4 -19 14 -46 24 -60 10 -14 21 -36 25 -50 4
-14 16 -42 27 -63 29 -58 15 -74 -64 -71 -42 2 -66 8 -74 18 -6 9 -14 13 -17
9 -10 -10 -8 -25 2 -19 13 9 3 -134 -12 -164 -6 -14 -21 -33 -32 -43 -20 -17
-19 -17 7 -8 21 8 26 7 24 -5 -1 -9 -9 -20 -17 -26 -11 -8 -10 -9 4 -4 36 12
5 -14 -61 -51 -37 -20 -72 -42 -78 -48 -6 -5 -27 -19 -47 -30 l-37 -20 0 -82
c0 -46 3 -83 6 -83 3 0 24 17 45 38 22 20 45 37 51 37 22 0 19 -25 -6 -50 -33
-33 -33 -40 -1 -19 15 10 25 12 25 5 0 -6 -4 -11 -9 -11 -5 0 -17 -8 -27 -17
-19 -19 -54 -25 -71 -11 -9 7 -12 -39 -13 -197 0 -186 1 -210 20 -252 24 -54
23 -50 6 -56 -10 -4 -13 -1 -10 7 3 8 0 17 -6 21 -8 5 -10 -16 -8 -72 l3 -78
42 -1 c49 -1 54 2 71 39 16 37 30 27 30 -23 1 -22 -3 -38 -8 -35 -4 3 -11 -1
-14 -7 -5 -11 -7 -11 -12 0 -11 24 -22 2 -14 -31 4 -18 3 -43 -1 -55 -6 -15
-5 -21 1 -17 6 3 10 0 10 -8 0 -17 47 -40 63 -31 7 4 21 15 32 25 27 23 100
38 93 18 -3 -8 1 -27 9 -42 14 -29 9 -47 -22 -69 -6 -5 -6 -8 1 -8 6 0 14 3
18 7 15 15 37 11 32 -5 -3 -9 -1 -24 5 -32 9 -12 10 -11 6 7 -6 28 25 37 42
12 6 -11 18 -19 26 -19 45 0 -9 -57 -63 -66 -15 -3 -34 -11 -42 -17 -8 -7 -33
-21 -55 -32 -22 -10 -52 -28 -67 -38 -16 -10 -28 -14 -28 -9 0 6 7 12 15 16
17 6 20 32 4 41 -6 4 -13 -2 -16 -14 -3 -12 -12 -21 -20 -21 -8 0 -11 5 -8 10
3 6 -1 10 -9 10 -8 0 -18 -5 -22 -11 -10 -18 17 -59 40 -59 12 0 17 -4 11 -8
-5 -4 -10 -20 -10 -37 0 -24 -5 -31 -32 -39 -25 -7 -33 -14 -33 -32 0 -13 -5
-24 -10 -24 -6 0 -8 -10 -4 -24 3 -14 2 -32 -3 -41 -8 -14 -12 -14 -36 5 l-27
21 0 -143 0 -143 20 30 c11 17 25 48 30 70 17 67 28 85 50 85 23 0 35 12 125
121 77 94 144 164 150 157 3 -2 -3 -20 -12 -39 -21 -42 -29 -148 -14 -177 7
-13 17 -19 26 -16 11 5 13 2 9 -10 -4 -9 -9 -15 -11 -12 -3 3 -12 -2 -21 -10
-10 -11 -18 -12 -25 -5 -6 6 -15 11 -21 11 -5 0 -7 -2 -4 -5 8 -8 -16 -86 -27
-88 -6 -1 -12 10 -15 24 -4 23 -8 25 -27 18 -30 -11 -29 -21 4 -59 20 -24 24
-36 17 -48 -15 -23 -34 -26 -34 -5 -1 10 -7 32 -14 48 l-13 30 1 -27 c0 -16 5
-28 9 -28 4 0 0 -11 -10 -24 -10 -13 -22 -23 -26 -23 -5 1 -14 -13 -20 -32
-14 -41 -32 -50 -40 -21 -5 18 -12 21 -54 18 l-48 -3 -3 -228 -3 -228 37 16
c49 20 55 19 44 -10 -12 -32 -6 -32 27 4 31 31 68 53 98 58 10 2 22 8 26 15 4
6 12 7 18 4 7 -5 11 1 11 14 0 17 4 20 21 15 16 -5 20 -3 16 6 -2 8 -9 13 -15
12 -11 -3 -9 133 2 144 2 3 14 2 25 -2 24 -7 35 -36 33 -87 -2 -43 0 -44 39
-21 15 9 32 14 35 10 9 -9 -28 -37 -39 -30 -5 3 -23 -8 -40 -24 -47 -42 -88
-69 -119 -77 -16 -3 -28 -13 -28 -20 0 -8 -17 -21 -37 -29 -40 -16 -93 -61
-93 -77 0 -6 16 -10 35 -10 19 0 35 5 35 10 0 6 5 10 11 10 5 0 7 -5 4 -10 -3
-6 -3 -10 0 -10 10 0 35 28 35 39 0 5 5 22 12 38 6 15 12 31 12 35 1 3 4 10 8
14 12 12 9 -10 -7 -56 -25 -70 -23 -71 49 -69 36 1 71 6 78 10 10 7 8 9 -6 9
-15 0 -16 3 -6 15 9 11 11 34 6 79 -5 55 -4 65 14 81 18 17 20 17 14 2 -3 -9
-10 -17 -14 -17 -4 0 -2 -18 3 -40 6 -22 15 -40 19 -40 4 0 8 -17 8 -39 0 -21
6 -43 12 -48 17 -13 220 -14 212 -2 -12 20 -23 69 -13 64 5 -4 9 -14 9 -24 0
-16 29 -51 42 -51 11 0 -5 51 -37 112 -26 52 -36 63 -55 60 -16 -1 -21 2 -17
12 3 8 -7 33 -23 55 -16 22 -26 42 -22 45 4 2 9 19 10 38 2 18 7 37 12 42 6 6
10 20 10 32 0 27 13 36 54 41 29 3 71 31 61 41 -2 3 3 11 13 18 15 12 13 13
-20 14 -21 0 -38 5 -38 10 0 6 6 10 13 8 15 -3 57 23 57 35 0 5 -7 7 -15 4
-25 -10 -28 13 -3 23 20 9 19 10 -9 6 -59 -10 -28 25 35 39 l32 7 -27 46 c-14
26 -47 76 -71 111 l-45 64 -23 -27 c-13 -14 -21 -32 -18 -40 3 -7 -2 -16 -10
-19 -9 -4 -16 -12 -16 -19 0 -6 -11 -24 -26 -39 -25 -26 -43 -109 -23 -109 5
0 9 -9 9 -21 0 -11 5 -29 11 -40 6 -11 8 -25 6 -32 -5 -16 -47 66 -47 93 0 18
-2 19 -20 8 -11 -7 -23 -21 -26 -30 -3 -10 -10 -18 -15 -18 -6 0 -8 4 -4 9 3
5 1 12 -5 16 -13 8 -13 -16 0 -49 5 -15 5 -28 0 -31 -5 -3 -5 -19 1 -38 14
-50 12 -107 -5 -107 -8 0 -18 5 -21 11 -4 6 -13 8 -19 6 -9 -4 -16 18 -25 69
-7 40 -16 76 -22 79 -5 4 -9 2 -9 -3 0 -5 -14 -7 -32 -3 -22 5 -34 13 -36 26
-2 17 -1 18 10 5 15 -17 38 -24 38 -11 0 5 10 7 22 3 11 -3 19 -1 16 4 -6 9 1
24 50 113 12 23 20 46 17 51 -3 6 -2 10 3 10 5 0 25 16 45 35 32 31 39 34 56
23 15 -9 23 -9 34 1 23 18 98 141 87 141 -18 0 -41 61 -35 91 5 23 3 29 -10
29 -9 0 -14 -4 -11 -9 3 -5 -2 -12 -11 -15 -14 -6 -15 -9 -4 -15 11 -7 9 -11
-6 -20 -23 -12 -34 -6 -26 15 3 9 -2 14 -16 14 -42 0 13 36 90 60 98 30 118
40 113 55 -3 6 0 24 5 38 6 15 7 27 2 27 -5 0 -11 17 -14 38 -4 20 -9 53 -12
72 -5 31 -3 29 15 -15 11 -27 21 -59 21 -70 1 -17 2 -17 6 -3 5 21 19 24 26 6
3 -8 9 -3 15 12 l10 25 12 -30 c25 -64 31 -143 10 -130 -5 3 -7 -7 -5 -22 2
-16 4 -34 4 -42 1 -11 4 -11 18 0 15 13 15 12 2 -8 -11 -18 -11 -25 -1 -35 20
-20 15 -47 -8 -41 -11 3 -20 10 -20 15 0 5 -4 7 -9 4 -14 -9 -8 -27 19 -65 14
-18 24 -37 23 -42 -2 -4 4 -6 12 -3 9 4 18 -1 22 -12 4 -10 2 -19 -5 -22 -7
-2 -9 -9 -5 -15 3 -7 -3 -4 -14 6 -18 16 -21 16 -33 1 -11 -13 -11 -17 -1 -24
8 -4 11 -12 7 -18 -3 -6 -1 -14 5 -18 6 -3 15 -1 19 6 5 9 12 5 24 -11 9 -13
16 -29 16 -36 0 -17 17 -25 26 -12 4 8 3 9 -4 5 -7 -4 -12 -2 -12 4 0 23 24 3
32 -25 8 -33 2 -47 -12 -25 -8 13 -13 13 -30 2 -17 -10 -25 -11 -36 -1 -12 10
-13 9 -8 -4 3 -8 0 -25 -6 -37 -7 -13 -8 -20 -3 -17 19 12 5 -59 -23 -120 -29
-63 -54 -79 -80 -53 -14 14 -44 2 -38 -15 3 -7 -2 -19 -10 -28 -19 -18 -21
-31 -4 -21 8 5 9 -2 3 -27 -8 -31 -11 -124 -5 -166 2 -10 11 -30 21 -44 10
-14 28 -51 39 -82 l21 -57 280 0 c153 0 279 1 279 3 0 14 -81 202 -93 215 -8
9 -25 37 -37 62 -13 25 -42 67 -66 94 -24 26 -44 51 -44 55 0 3 -9 12 -21 19
-12 8 -18 9 -14 3 3 -7 -2 -11 -15 -11 -14 0 -20 5 -18 17 2 12 -6 17 -32 20
l-34 5 24 -20 c22 -18 23 -22 10 -38 -14 -17 -13 -18 1 -6 14 11 23 10 50 -6
18 -10 35 -24 37 -31 3 -8 0 -11 -5 -8 -5 3 -9 -3 -9 -14 0 -19 1 -19 13 -2
12 16 18 13 71 -41 40 -40 51 -57 37 -55 -11 2 -23 9 -27 14 -5 6 -8 6 -8 -2
0 -17 -78 15 -118 49 -18 15 -37 28 -42 28 -6 0 -10 8 -11 18 0 10 -3 12 -6 5
-8 -21 -17 -15 -38 23 -16 30 -17 37 -5 44 12 7 11 10 -5 16 -12 5 -20 3 -23
-5 -3 -8 -11 -4 -23 11 l-20 22 33 18 c42 22 76 23 100 1 14 -13 21 -14 30 -5
20 20 33 14 85 -36 27 -26 72 -63 100 -82 29 -19 58 -46 65 -60 6 -14 17 -31
22 -38 13 -18 47 -115 42 -120 -3 -2 -21 31 -41 75 -34 74 -79 133 -117 154
-14 8 -16 6 -11 -8 4 -10 17 -29 30 -43 25 -26 133 -238 133 -259 0 -7 5 -9
12 -5 7 5 8 3 4 -5 -5 -7 -2 -25 4 -42 12 -28 15 -29 81 -29 37 0 71 5 74 10
3 6 1 10 -5 10 -6 0 -8 4 -5 10 3 5 -3 28 -15 52 -24 50 -25 54 -5 38 8 -7 15
-21 15 -31 0 -11 5 -19 10 -19 6 0 10 7 10 16 0 8 5 12 11 8 7 -4 7 -10 1 -16
-7 -7 -5 -21 6 -44 l17 -34 104 0 105 0 -34 25 c-19 14 -38 25 -42 25 -4 0 -8
4 -8 10 0 11 32 1 41 -13 3 -4 25 -11 48 -14 25 -4 41 -11 41 -19 0 -20 515
-21 524 -1 5 9 7 9 12 0 4 -10 102 -13 432 -12 417 0 426 1 405 19 -13 10 -23
23 -23 28 0 5 -7 12 -15 16 -8 3 -15 16 -16 28 -1 38 -26 93 -39 90 -10 -2
-11 0 -2 10 7 9 8 19 2 28 -8 12 -10 12 -10 1 0 -11 -3 -11 -15 -1 -17 14 -21
35 -5 25 6 -3 10 -2 10 4 0 5 -8 12 -18 15 -14 5 -17 14 -14 38 6 42 37 74 89
94 55 21 57 41 3 36 -25 -3 -40 0 -40 7 0 13 -59 81 -71 81 -4 0 -20 11 -35
25 -15 14 -69 49 -121 77 -51 28 -95 60 -99 70 -3 10 -10 18 -15 18 -6 0 -7 4
-4 10 3 5 0 7 -8 4 -15 -5 -31 22 -21 37 3 5 12 9 20 9 8 0 14 2 14 5 0 12
-24 55 -32 55 -4 0 -8 5 -8 11 0 6 -14 29 -31 50 -20 26 -29 45 -24 57 3 9 9
35 11 57 3 22 7 49 11 60 3 10 7 36 9 57 4 57 27 79 41 41 4 -10 13 -24 20
-31 10 -10 14 -8 19 13 9 35 -1 123 -17 158 -14 30 -46 33 -41 4 2 -10 -4 -17
-13 -17 -10 0 -15 10 -15 30 0 17 5 30 10 30 6 0 10 -4 10 -10 0 -5 7 -7 15
-4 11 5 12 10 4 26 -8 14 -14 17 -21 10 -8 -8 -16 -4 -29 12 -13 17 -25 22
-46 19 -32 -5 -175 46 -167 59 6 9 -26 -1 -43 -15 -7 -5 -13 -29 -13 -52 0
-52 55 -140 87 -139 17 0 20 -6 19 -35 -2 -54 -22 -48 -56 19 -19 38 -35 58
-42 54 -6 -4 -8 -3 -5 3 4 6 -6 28 -22 50 -25 35 -57 56 -111 76 -8 3 9 6 38
6 28 1 52 4 52 9 0 4 16 16 36 27 46 25 84 70 84 100 0 28 19 43 30 25 5 -7 6
-25 3 -39 l-4 -26 28 28 c16 15 35 27 43 27 16 0 177 165 173 177 -2 4 10 16
25 27 15 10 37 36 49 57 32 58 5 54 -97 -12 -108 -71 -161 -89 -280 -95 -52
-2 -114 -6 -137 -9 -25 -3 -43 0 -43 5 0 10 28 12 179 15 50 1 77 6 85 16 6 8
32 30 59 49 30 22 50 45 53 63 4 15 13 27 22 27 8 0 13 3 9 6 -9 10 84 93 98
87 9 -3 12 2 9 14 -3 11 2 25 10 32 11 9 16 10 16 2 0 -17 17 -13 24 7 3 9 9
24 12 32 5 13 4 13 -5 0 -6 -8 -11 -10 -11 -5 0 6 5 16 12 23 9 9 9 12 -1 12
-9 0 -10 4 -4 13 6 6 13 26 17 42 7 28 3 26 -56 -31 -141 -135 -232 -193 -357
-225 -232 -60 -494 70 -609 302 -85 171 -104 341 -57 504 14 47 35 105 46 128
53 105 183 241 288 300 93 53 258 81 385 66 74 -9 189 -59 250 -108 144 -116
239 -293 253 -469 5 -63 11 -90 25 -104 36 -36 21 -70 -57 -126 -6 -4 -20 -15
-31 -25 -20 -17 -21 -17 -20 32 1 27 5 53 9 57 10 11 -24 31 -67 39 -20 4 -51
19 -67 32 -16 14 -37 26 -46 28 -10 2 -20 4 -23 4 -3 1 2 6 10 12 12 8 10 9
-7 4 -14 -4 -23 -2 -23 5 0 6 -4 9 -9 6 -4 -3 -16 1 -27 8 -15 12 -17 19 -9
43 8 22 17 29 43 31 25 3 32 0 32 -15 0 -11 3 -14 8 -7 11 17 72 46 86 41 7
-3 20 3 29 14 9 10 12 19 7 19 -6 0 -9 3 -8 8 6 24 -14 48 -44 50 -74 6 -144
39 -125 59 4 3 2 12 -4 20 -9 10 -8 13 5 13 30 0 16 26 -24 44 -22 10 -40 22
-40 27 0 8 8 10 52 13 20 1 37 16 18 16 -7 0 -1 10 14 21 l27 22 -27 28 c-15
16 -35 29 -43 28 -12 0 -10 -4 7 -16 23 -16 30 -57 12 -68 -6 -4 -7 -11 -4
-17 4 -7 2 -8 -4 -4 -7 4 -12 14 -12 22 0 11 -11 14 -45 12 -34 -2 -45 -7 -45
-20 0 -20 -20 -35 -20 -16 0 7 -6 5 -12 -6 -9 -16 -6 -23 16 -43 15 -13 34
-23 41 -23 8 0 18 -12 21 -26 5 -20 1 -31 -19 -50 l-27 -24 6 28 c5 22 1 34
-17 51 -12 11 -31 21 -42 21 -17 0 -18 -5 -12 -64 9 -84 -3 -109 -52 -104 -30
2 -36 -1 -48 -27 -17 -42 -71 -95 -96 -95 -15 0 -19 -5 -17 -21 2 -17 -3 -22
-28 -25 -23 -3 -38 4 -63 26 -18 17 -34 30 -36 30 -2 0 -1 -24 2 -54 5 -47 3
-56 -15 -67 -17 -11 -19 -20 -15 -70 3 -31 3 -68 0 -81 -9 -32 -61 -89 -78
-84 -8 2 -27 7 -43 11 l-28 6 7 -60 c7 -61 0 -81 -33 -92 -8 -3 -4 -13 14 -32
14 -15 29 -25 34 -22 5 3 12 0 16 -6 4 -8 3 -9 -4 -5 -7 4 -12 5 -12 2 0 -2
20 -15 45 -27 25 -12 45 -26 45 -30 0 -11 99 -48 159 -59 66 -12 161 -13 161
-1 0 4 12 6 28 4 21 -4 24 -2 12 6 -13 9 -12 11 3 11 11 0 15 4 11 11 -5 8 1
10 19 7 20 -4 36 4 69 33 24 21 49 36 56 34 7 -3 10 0 7 5 -6 10 0 12 36 14
33 2 165 138 153 157 -3 5 -2 8 3 7 4 -1 38 28 75 65 93 93 114 90 58 -10 -17
-30 -28 -58 -25 -63 3 -5 0 -12 -6 -16 -8 -4 -9 -3 -5 4 11 19 -5 14 -19 -5
-18 -24 8 -51 30 -33 8 7 15 17 15 22 0 5 14 29 30 53 17 24 30 55 30 68 0 13
9 36 20 49 10 14 16 28 13 32 -3 3 0 6 8 6 11 0 11 2 1 8 -10 7 -9 14 5 33 32
43 43 68 37 83 -3 9 5 21 21 32 36 24 52 59 54 127 2 56 -12 77 -27 40 -9 -25
-19 22 -22 107 l-3 65 -8 -45 c-13 -74 -11 -222 3 -214 8 5 9 2 4 -12 -5 -10
-11 -27 -13 -36 -11 -38 -19 -13 -30 93 -11 100 -49 248 -74 289 -5 8 -12 22
-15 30 -11 30 -21 45 -27 40 -12 -12 -50 54 -51 90 -2 43 -11 62 -13 28 -3
-31 -8 -32 -52 -4 -22 14 -44 26 -48 26 -13 1 -63 48 -63 60 0 21 -24 4 -31
-21 -6 -21 -7 -21 -9 -4 -1 11 -2 25 -1 32 1 6 -8 18 -20 27 -19 13 -21 21
-16 61 l7 47 -31 -26 c-27 -23 -39 -26 -113 -26 -70 0 -86 3 -101 20 -26 29
-39 25 -19 -6 13 -19 14 -28 5 -37 -11 -11 -16 0 -12 31 1 6 -2 12 -6 12 -5 0
-10 -10 -10 -22 -1 -13 -7 -24 -13 -26 -5 -2 -7 -9 -4 -14 4 -7 2 -8 -4 -4 -7
4 -12 16 -12 27 0 12 4 17 11 13 8 -4 8 0 0 15 -7 12 -9 27 -5 33 5 7 3 8 -5
4 -14 -9 -34 -52 -36 -79 -2 -10 -8 -24 -15 -30 -10 -10 -11 -7 -6 15 4 16 2
28 -6 30 -8 3 -7 12 3 34 18 34 10 78 -14 82 -12 3 -15 -1 -11 -15 5 -16 4
-16 -10 1 -16 20 -32 26 -72 29 -11 1 -28 10 -38 20 -20 19 -26 21 -26 7z m78
-94 c30 -30 37 -69 14 -87 -19 -17 -87 -41 -181 -64 -60 -15 -64 -15 -83 2
-16 14 -20 15 -18 3 8 -51 -2 -89 -28 -116 -45 -46 -90 -75 -126 -81 -28 -4
-34 -1 -45 24 -20 43 -24 89 -9 116 7 13 39 46 72 72 50 40 62 46 80 37 18 -8
25 -6 33 7 6 10 28 26 50 36 21 10 53 29 71 43 60 46 128 49 170 8z m62 10 c0
-3 -4 -8 -10 -11 -5 -3 -10 -1 -10 4 0 6 5 11 10 11 6 0 10 -2 10 -4z m-375
-16 c3 -5 1 -10 -4 -10 -6 0 -11 5 -11 10 0 6 2 10 4 10 3 0 8 -4 11 -10z m35
6 c0 -3 -4 -8 -10 -11 -5 -3 -10 -1 -10 4 0 6 5 11 10 11 6 0 10 -2 10 -4z
m-151 -115 c9 -6 10 -10 2 -16 -16 -9 -44 2 -36 15 8 12 16 12 34 1z m436 -49
c-3 -3 -14 4 -25 15 -10 12 -16 24 -12 28 4 3 15 -4 25 -16 9 -12 15 -24 12
-27z m-7 -19 c6 -19 -25 -16 -32 3 -4 11 -1 14 11 12 9 -2 18 -9 21 -15z m547
-3 c3 -5 1 -10 -4 -10 -6 0 -11 5 -11 10 0 6 2 10 4 10 3 0 8 -4 11 -10z
m-795 -100 c0 -5 -5 -10 -11 -10 -5 0 -7 5 -4 10 3 6 8 10 11 10 2 0 4 -4 4
-10z m665 -120 c3 -5 1 -10 -4 -10 -6 0 -11 5 -11 10 0 6 2 10 4 10 3 0 8 -4
11 -10z m-1097 -235 c-3 -3 -9 2 -12 12 -6 14 -5 15 5 6 7 -7 10 -15 7 -18z
m-1018 -153 c0 -9 -7 -26 -15 -36 -8 -11 -13 -28 -9 -38 3 -11 0 -18 -8 -18
-8 0 -23 -7 -34 -16 -10 -8 -14 -13 -7 -10 17 9 22 -3 33 -84 6 -39 17 -84 25
-98 l15 -27 -2 30 c-3 78 1 93 22 88 16 -4 20 0 20 23 0 15 2 25 5 22 3 -3 1
-41 -4 -84 -7 -57 -7 -81 2 -86 19 -12 26 1 20 37 -5 33 -4 35 22 35 24 0 26
-3 21 -24 -6 -23 -4 -24 28 -19 21 3 36 1 41 -7 11 -18 -15 -31 -47 -24 -22 4
-27 2 -22 -10 4 -11 14 -13 35 -9 21 4 30 1 35 -11 4 -10 2 -22 -4 -28 -7 -7
-7 -16 1 -29 9 -14 9 -21 -1 -31 -10 -10 -15 -6 -24 20 -13 33 -48 45 -48 17
0 -12 -4 -13 -19 -5 -27 14 -31 13 -31 -10 0 -11 -5 -20 -10 -20 -6 0 -9 -5
-8 -11 2 -6 -3 -14 -11 -17 -10 -3 -12 0 -8 12 5 12 -1 20 -18 28 -17 7 -25
19 -25 35 0 13 4 22 9 19 5 -3 11 3 14 13 3 14 0 17 -14 14 -19 -5 -27 15 -50
137 -7 36 -18 70 -24 75 -27 23 -25 50 6 84 17 19 35 45 40 57 6 17 13 22 25
17 13 -5 15 -3 9 7 -5 9 -4 11 3 6 7 -4 12 -15 12 -24z m1145 -2 c23 -26 27
-46 16 -87 -5 -18 -5 -33 -1 -35 12 -4 17 -73 5 -73 -5 0 -9 10 -7 23 1 12 -2
22 -8 22 -6 0 -8 5 -4 12 4 6 3 8 -3 5 -5 -3 -8 -20 -7 -36 2 -25 -2 -31 -17
-31 -10 0 -19 -7 -19 -15 0 -9 -9 -15 -25 -15 -14 0 -25 -4 -25 -10 0 -5 -4
-10 -10 -10 -5 0 -10 9 -10 20 0 12 7 20 16 20 9 0 14 7 12 18 -2 11 -13 17
-33 18 l-30 0 2 68 c2 85 19 113 70 119 21 2 43 4 49 5 6 1 19 -7 29 -18z
m610 -110 c3 -5 18 -10 32 -10 25 0 26 -1 20 -59 -7 -85 -56 -146 -70 -88 -12
48 -19 120 -13 143 7 25 20 31 31 14z m-1615 -100 c0 -5 -7 -10 -16 -10 -8 0
-12 5 -9 10 3 6 10 10 16 10 5 0 9 -4 9 -10z m28 -55 c1 -19 -3 -25 -18 -25
-25 0 -34 16 -18 34 20 23 33 19 36 -9z m1067 -45 c28 -31 8 -37 -23 -7 -19
20 -22 27 -11 27 9 0 24 -9 34 -20z m-50 -52 c19 -65 19 -65 -5 -78 -17 -9
-24 -7 -40 12 -11 13 -19 29 -20 36 0 6 -4 12 -10 12 -5 0 -10 4 -10 9 0 15
53 70 62 65 4 -3 14 -28 23 -56z m-1359 36 c-3 -9 -6 -24 -6 -34 0 -13 -5 -17
-21 -13 -14 4 -17 9 -10 16 6 6 11 19 11 29 0 10 7 18 16 18 11 0 14 -5 10
-16z m2489 -34 c3 -6 -1 -7 -9 -4 -18 7 -21 14 -7 14 6 0 13 -4 16 -10z
m-2545 -35 c0 -8 -4 -15 -10 -15 -5 0 -7 7 -4 15 4 8 8 15 10 15 2 0 4 -7 4
-15z m174 -20 c0 -17 -4 -45 -8 -63 l-8 -34 -24 48 c-23 45 -23 48 -7 66 25
27 48 19 47 -17z m1305 -3 c-3 -7 -11 -5 -23 3 -10 8 -15 19 -11 25 9 14 40
-12 34 -28z m-958 15 c-1 -12 -15 -9 -19 4 -3 6 1 10 8 8 6 -3 11 -8 11 -12z
m-441 -12 c7 -9 8 -15 2 -15 -5 0 -12 7 -16 15 -3 8 -4 15 -2 15 2 0 9 -7 16
-15z m1206 -20 c9 -14 14 -32 10 -40 -4 -11 1 -15 17 -15 12 0 30 -7 40 -14
16 -13 16 -14 -5 -20 -34 -9 -58 -7 -58 3 0 6 -11 22 -25 37 -24 26 -32 54
-18 67 12 12 22 7 39 -18z m-88 -2 c5 -18 -28 -29 -38 -12 -5 7 -6 17 -3 22 7
12 35 5 41 -10z m152 7 c0 -5 -4 -10 -10 -10 -5 0 -10 5 -10 10 0 6 5 10 10
10 6 0 10 -4 10 -10z m529 -42 c12 -32 -4 -58 -35 -58 -24 0 -25 3 -19 27 13
54 40 68 54 31z m-1539 -23 c20 -21 21 -25 6 -25 -11 0 -16 -6 -14 -17 1 -10
-1 -24 -5 -30 -10 -15 -37 -17 -37 -3 0 6 6 10 13 10 16 0 15 46 -1 62 -7 7
-12 16 -12 20 0 16 27 7 50 -17z m-145 -15 c3 -5 1 -10 -4 -10 -6 0 -11 5 -11
10 0 6 2 10 4 10 3 0 8 -4 11 -10z m333 -24 c17 -19 32 -32 35 -29 10 9 46
-73 38 -86 -13 -20 -34 14 -25 41 6 20 5 21 -10 9 -14 -12 -21 -9 -51 22 -32
33 -47 77 -26 77 5 0 22 -15 39 -34z m-128 14 c0 -5 -4 -10 -10 -10 -5 0 -10
5 -10 10 0 6 5 10 10 10 6 0 10 -4 10 -10z m-110 -21 c0 -6 -5 -20 -12 -32 -6
-12 -14 -35 -17 -51 -6 -27 -8 -28 -22 -13 -12 12 -19 13 -28 4 -8 -8 -11 -7
-11 4 -1 7 -7 0 -15 -18 -7 -17 -23 -34 -34 -38 -17 -5 -21 -15 -21 -49 0 -24
-7 -59 -15 -79 -8 -19 -12 -37 -9 -39 3 -3 -1 -8 -9 -11 -20 -8 -53 104 -38
131 18 33 41 52 56 46 10 -4 15 0 15 13 0 28 37 100 54 106 10 4 20 -2 26 -13
15 -29 28 -25 47 15 16 34 33 46 33 24z m134 -5 c3 -8 2 -12 -4 -9 -6 3 -10
10 -10 16 0 14 7 11 14 -7z m1176 -14 c0 -5 -2 -10 -4 -10 -3 0 -8 5 -11 10
-3 6 -1 10 4 10 6 0 11 -4 11 -10z m-614 -31 c7 -12 -15 -31 -28 -23 -4 3 -8
12 -8 20 0 17 26 19 36 3z m617 4 c-7 -3 -13 -11 -13 -19 0 -17 -46 -19 -56
-3 -9 16 14 28 50 27 17 -1 25 -3 19 -5z m-1123 -40 c-11 -17 -11 -17 -6 0 3
10 6 24 7 30 0 9 2 9 5 0 3 -7 0 -20 -6 -30z m940 3 c-14 -14 -22 -2 -14 18 5
14 9 15 15 4 4 -7 4 -17 -1 -22z m-989 -13 c13 -16 12 -17 -3 -4 -10 7 -18 15
-18 17 0 8 8 3 21 -13z m105 -15 c9 -17 20 -36 25 -42 5 -6 18 -22 29 -35 11
-13 29 -49 41 -80 25 -66 38 -201 19 -201 -8 0 -10 10 -6 33 7 37 -7 70 -17
42 -6 -13 -11 -14 -29 -4 -19 9 -21 9 -10 -2 14 -15 17 -43 3 -34 -6 3 -15 -3
-20 -12 -10 -17 -12 -17 -23 2 -21 33 -26 57 -27 127 -1 36 -10 95 -21 130
-23 75 -24 84 -7 69 10 -8 14 -7 14 4 0 8 -4 15 -9 15 -5 0 -6 5 -3 10 11 18
24 11 41 -22z m639 -6 c0 -23 4 -32 17 -32 11 0 16 -7 15 -20 -1 -11 -4 -20
-8 -20 -3 0 14 -78 39 -172 60 -230 60 -226 6 -282 -37 -39 -43 -50 -38 -76 4
-19 2 -30 -5 -30 -6 0 -11 -5 -11 -11 0 -6 -10 -33 -21 -60 -17 -39 -26 -49
-45 -49 -27 0 -31 -11 -11 -32 6 -8 25 -28 40 -45 26 -28 27 -32 12 -47 -23
-22 -42 -20 -48 6 -4 12 -9 20 -12 16 -13 -13 61 -120 85 -123 3 0 16 -7 30
-15 14 -8 29 -14 33 -15 5 0 20 -13 34 -30 30 -36 28 -30 -20 62 -20 40 -37
84 -37 98 0 26 44 142 61 159 5 6 16 3 28 -8 19 -17 19 -17 14 6 -5 23 -5 23
10 3 9 -11 17 -26 17 -33 0 -7 4 -11 9 -8 5 3 7 16 4 29 -4 19 -2 18 15 -7 12
-17 19 -33 16 -37 -2 -4 3 -9 11 -13 8 -3 15 -17 15 -31 0 -28 37 -122 55
-141 5 -6 23 -14 38 -18 20 -5 27 -3 27 8 0 9 9 20 19 26 16 8 21 6 26 -10 8
-24 -1 -40 -21 -40 -22 0 -17 -10 20 -44 29 -27 69 -108 90 -181 3 -11 18 -34
33 -50 45 -49 56 -74 42 -91 -6 -8 -18 -14 -25 -14 -14 0 -20 -45 -15 -118 3
-42 -23 -44 -47 -2 -18 32 -32 39 -32 15 0 -8 -5 -15 -11 -15 -5 0 -7 -5 -3
-12 4 -7 3 -8 -4 -4 -9 5 -9 13 -1 28 6 12 7 18 1 14 -5 -3 -12 1 -16 9 -4 11
-20 15 -56 15 -27 0 -50 4 -50 10 0 5 -16 17 -35 26 -31 14 -44 15 -98 5 -34
-7 -81 -15 -104 -18 -24 -3 -43 -9 -43 -13 0 -4 -19 -2 -43 5 -30 9 -49 10
-61 3 -10 -5 -20 -7 -23 -4 -3 3 7 10 22 16 15 6 25 13 22 17 -4 3 -17 -1 -31
-10 -20 -13 -24 -24 -22 -57 1 -22 8 -46 15 -53 10 -9 11 -9 6 5 -4 11 1 20
14 28 14 7 21 7 21 0 0 -5 -6 -10 -12 -11 -9 0 -9 -2 1 -6 11 -4 11 -7 0 -14
-11 -6 -11 -12 0 -32 17 -31 7 -51 -18 -37 -23 12 -73 116 -72 149 2 47 4 61
11 61 3 0 6 18 7 40 1 22 -2 40 -8 40 -5 0 -9 11 -9 25 0 14 -4 25 -9 25 -5 0
-11 9 -14 20 -7 27 29 27 38 0 3 -11 12 -20 19 -20 22 0 26 13 8 29 -9 9 -26
26 -36 38 -19 23 -19 23 10 65 16 24 35 49 42 57 28 29 42 59 36 75 -3 9 -10
16 -15 16 -4 0 -23 13 -42 29 -19 17 -47 31 -67 33 -24 2 -38 10 -46 26 -19
39 -32 48 -40 26 -4 -10 -14 -27 -22 -36 -8 -9 -15 -31 -16 -48 -1 -32 -26
-66 -100 -139 l-38 -38 31 -5 c20 -3 36 1 43 9 6 8 19 12 29 10 12 -3 16 0 12
9 -3 8 1 14 8 14 8 1 28 12 44 26 17 15 24 23 18 20 -7 -4 -13 -5 -13 -2 0 2
-3 12 -7 22 -5 13 -3 16 10 11 10 -4 17 0 20 11 2 9 4 -1 4 -23 1 -22 -7 -53
-17 -70 -23 -38 -24 -103 -3 -178 14 -50 14 -60 2 -68 -12 -7 -11 -13 3 -39
21 -37 13 -38 -27 -4 -16 14 -23 22 -15 18 12 -5 12 -4 4 5 -17 18 -54 -4 -54
-31 0 -19 -2 -19 -22 -6 -27 18 -38 44 -15 35 17 -6 32 19 17 28 -6 4 -10 12
-10 18 0 7 4 6 11 -3 8 -11 9 -6 5 20 -4 19 -26 64 -50 100 -75 113 -100 174
-92 226 8 60 11 64 52 64 48 0 70 13 101 63 35 55 36 120 4 164 -16 21 -21 38
-17 50 7 17 8 17 20 1 7 -10 16 -15 20 -11 4 4 4 0 1 -9 -10 -26 13 -88 30
-82 33 13 25 126 -15 207 -27 54 -55 103 -67 119 -6 7 -21 45 -34 83 -13 39
-29 75 -35 80 -6 6 -20 24 -30 42 -17 30 -17 33 -1 50 12 14 15 33 13 76 -3
55 10 79 21 37 3 -11 9 -17 14 -14 5 3 9 -10 9 -28 1 -18 8 -46 16 -63 8 -16
12 -21 9 -10 -14 48 -18 108 -7 101 7 -4 12 -18 12 -31 0 -37 11 -60 21 -43
10 16 21 5 39 -40 16 -42 8 -49 -35 -29 -41 19 -52 9 -31 -31 8 -16 23 -60 32
-98 9 -38 34 -105 54 -149 47 -102 83 -286 60 -300 -6 -3 -10 -12 -10 -20 0
-11 6 -11 29 -2 l29 11 -19 24 c-23 29 -24 42 -5 42 10 0 15 22 20 83 10 138
14 150 52 143 15 -3 27 1 34 12 7 13 9 0 10 -45 0 -34 -4 -64 -9 -67 -5 -3
-11 -22 -13 -41 -4 -36 9 -36 15 0 2 11 10 39 17 63 17 54 5 112 -27 128 -14
7 -19 14 -13 20 13 13 -17 57 -32 48 -7 -5 -9 -1 -5 9 3 10 2 17 -3 17 -5 0
-7 8 -4 18 4 13 3 14 -4 4 -7 -11 -10 -11 -15 2 -4 9 -2 16 3 16 5 0 7 8 3 18
-16 44 48 -36 82 -103 36 -70 37 -76 34 -158 -2 -47 -1 -83 4 -80 4 2 7 10 7
17 0 8 8 20 17 27 15 13 16 11 10 -18 -5 -23 -3 -33 6 -33 18 0 38 36 31 55
-4 9 1 22 12 30 11 8 15 15 9 15 -6 0 -6 3 0 8 6 4 20 20 32 35 l22 28 -25 37
c-17 25 -24 47 -22 67 3 28 1 31 -23 27 -38 -6 -46 16 -12 31 31 13 32 15 15
72 -7 22 -12 68 -12 103 0 50 -3 62 -16 62 -11 0 -15 -6 -12 -18 4 -15 0 -17
-28 -14 -26 3 -33 0 -39 -17 -8 -26 -21 -27 -34 -3 -8 15 -3 26 30 57 23 21
48 49 56 62 21 31 38 24 38 -15z m205 -13 c0 -4 11 -10 25 -13 13 -3 29 -15
35 -26 6 -11 15 -18 21 -15 16 11 48 -38 49 -74 0 -29 -2 -32 -15 -21 -8 7
-15 18 -15 24 -1 14 -35 56 -47 57 -12 1 -83 88 -83 102 1 12 30 -21 30 -34z
m-327 24 c2 -5 -6 -28 -19 -52 -13 -24 -24 -42 -25 -40 -9 34 -5 76 9 87 18
14 29 15 35 5z m207 -14 c0 -11 -4 -17 -10 -14 -5 3 -10 13 -10 21 0 8 5 14
10 14 6 0 10 -9 10 -21z m-1020 -3 c0 -16 -18 -31 -27 -22 -8 8 5 36 17 36 5
0 10 -6 10 -14z m557 -8 c-3 -8 -6 -5 -6 6 -1 11 2 17 5 13 3 -3 4 -12 1 -19z
m1566 14 c-6 -4 -13 -23 -15 -42 -4 -43 -19 -45 -30 -5 -8 32 9 55 41 55 11 0
12 -3 4 -8z m-1949 -71 c8 -27 6 -36 -6 -45 -8 -6 -13 -17 -11 -23 6 -16 -2
-16 -27 -3 -15 8 -19 19 -16 42 2 18 9 34 14 36 6 2 8 10 5 19 -4 11 -1 14 13
11 11 -2 22 -17 28 -37z m845 6 c0 -21 -1 -21 -9 -2 -12 28 -12 37 0 30 6 -3
10 -16 9 -28z m241 23 c0 -5 -2 -10 -4 -10 -3 0 -8 5 -11 10 -3 6 -1 10 4 10
6 0 11 -4 11 -10z m-1299 -61 c-10 -23 -10 -22 -7 6 6 39 7 42 12 29 3 -6 0
-22 -5 -35z m834 -9 c18 -20 15 -24 -19 -20 -18 2 -46 22 -46 34 0 15 49 4 65
-14z m805 -30 c0 -5 -4 -10 -10 -10 -5 0 -10 5 -10 10 0 6 5 10 10 10 6 0 10
-4 10 -10z m-1630 -35 c0 -13 -4 -27 -10 -30 -11 -7 -25 39 -15 55 10 16 25 2
25 -25z m1124 -162 c9 -59 -11 -35 -23 28 -8 38 -10 81 -5 113 l8 51 7 -80 c5
-44 10 -95 13 -112z m142 136 c10 -21 19 -28 23 -20 5 7 16 -6 31 -34 18 -35
21 -48 12 -57 -9 -9 -15 -9 -26 2 -21 22 -66 107 -66 124 0 24 8 19 26 -15z
m133 18 c27 -33 72 -131 69 -150 -3 -18 -9 -12 -35 32 -30 52 -31 53 -35 25
l-3 -29 -18 32 c-32 60 -15 134 22 90z m-1226 -20 c3 -8 1 -20 -4 -28 -15 -25
2 -91 30 -115 14 -12 23 -26 19 -30 -9 -8 -108 85 -108 102 0 6 7 28 15 48 15
36 39 47 48 23z m1422 -10 c11 -9 14 -16 8 -20 -6 -4 -22 2 -34 13 -18 14 -20
19 -8 20 8 0 23 -6 34 -13z m-1706 -49 c-5 -18 -9 -34 -9 -35 0 -2 -9 -3 -19
-3 -14 0 -18 5 -14 20 4 16 38 50 50 50 1 0 -3 -15 -8 -32z m1821 1 c0 -14
-16 -11 -29 5 -10 12 -8 13 8 9 12 -3 21 -9 21 -14z m-938 -81 c-9 -9 -13 -7
-17 5 -17 53 -17 53 7 30 17 -18 19 -26 10 -35z m670 2 c4 0 8 -8 8 -17 0 -14
-6 -11 -24 12 -13 16 -21 34 -18 39 3 6 10 0 15 -12 6 -12 14 -22 19 -22z
m-1702 20 c13 -8 13 -10 -2 -10 -9 0 -20 5 -23 10 -8 13 5 13 25 0z m135 -10
c3 -11 13 -20 21 -20 10 0 8 -6 -7 -21 -24 -24 -46 -19 -58 13 -7 17 -5 26 7
36 22 17 30 15 37 -8z m57 -32 c-9 -9 -12 -7 -12 12 0 19 3 21 12 12 9 -9 9
-15 0 -24z m136 10 c2 -9 -5 -18 -14 -22 -22 -9 -27 -2 -19 24 7 23 28 22 33
-2z m1369 -40 c35 -34 63 -68 63 -74 0 -6 -8 -18 -17 -25 -10 -7 -15 -10 -12
-6 4 4 -23 37 -58 72 -42 42 -63 71 -59 80 3 8 9 15 13 15 4 0 36 -28 70 -62z
m190 51 c14 -14 6 -39 -12 -39 -7 0 -15 9 -18 19 -8 30 9 41 30 20z m-1109
-36 c-4 -34 -28 -43 -28 -10 0 25 7 37 22 37 5 0 8 -12 6 -27z m-408 -4 c0
-24 -23 -21 -28 4 -2 10 3 17 12 17 10 0 16 -9 16 -21z m1765 3 c0 -18 -20
-15 -23 4 -3 10 1 15 10 12 7 -3 13 -10 13 -16z m-463 -103 c22 -22 38 -43 34
-47 -4 -4 -17 4 -28 18 -11 14 -25 24 -30 22 -5 -1 -7 2 -4 7 3 5 -1 15 -10
22 -18 15 -44 63 -44 81 1 7 10 -4 21 -25 11 -21 38 -56 61 -78z m-1032 25
c-7 -19 -18 -38 -26 -41 -17 -6 -48 23 -34 32 5 3 10 12 10 20 0 8 5 26 10 41
l11 27 20 -22 c18 -19 19 -26 9 -57z m-485 35 c0 -8 8 -27 18 -42 20 -32 22
-47 4 -47 -27 0 -73 71 -63 97 8 19 41 13 41 -8z m258 -22 c-3 -5 -12 -2 -20
6 -9 8 -12 20 -8 27 5 8 11 6 20 -7 7 -10 11 -22 8 -26z m664 6 c-3 -10 -5 -4
-5 12 0 17 2 24 5 18 2 -7 2 -21 0 -30z m-1127 23 c0 -11 -19 -15 -25 -6 -3 5
1 10 9 10 9 0 16 -2 16 -4z m340 -11 c7 -8 19 -15 26 -15 7 0 21 -12 31 -26
16 -25 16 -27 -2 -40 -15 -11 -21 -12 -31 -2 -13 13 -54 85 -54 93 0 10 18 4
30 -10z m1723 -57 c8 -11 5 -23 -11 -43 l-22 -28 0 47 c0 48 13 57 33 24z
m-1323 -35 c-13 -40 -30 -66 -30 -45 0 18 32 93 37 88 3 -3 0 -22 -7 -43z
m749 10 c10 -21 28 -47 40 -57 12 -11 21 -26 21 -35 0 -12 2 -13 8 -3 5 8 16
10 28 6 18 -7 18 -6 -1 13 -11 11 -24 19 -30 17 -5 -2 -16 8 -22 23 -20 42
-15 49 13 22 16 -15 23 -18 19 -7 -13 34 18 31 52 -5 18 -20 36 -36 41 -36 18
4 93 -214 78 -229 -7 -7 13 -32 25 -32 5 0 14 11 19 26 l10 25 42 -29 c55 -38
80 -67 157 -182 66 -97 118 -200 102 -200 -12 0 -51 49 -51 65 0 14 -93 149
-136 198 -43 48 -69 61 -94 47 -32 -17 -79 3 -130 55 -42 43 -81 65 -46 26 16
-17 15 -20 -9 -50 -16 -18 -36 -31 -48 -30 l-22 0 21 15 22 15 -29 28 c-46 47
-12 94 41 57 25 -18 -21 32 -108 118 -111 108 -113 113 -71 148 18 15 34 28
36 28 1 0 11 -17 22 -37z m-994 -4 c0 -17 -6 -25 -22 -27 -26 -4 -29 9 -11 38
16 26 33 20 33 -11z m1165 17 c0 -7 -7 -19 -15 -26 -12 -10 -15 -9 -15 7 0 11
3 23 7 26 11 12 23 8 23 -7z m-583 -18 c-3 -8 -6 -5 -6 6 -1 11 2 17 5 13 3
-3 4 -12 1 -19z m-945 -28 c18 -26 24 -42 16 -46 -7 -4 -8 -3 -4 4 6 11 -12
17 -36 13 -5 0 -7 2 -6 7 1 4 -3 17 -10 28 -10 20 -7 35 7 34 3 -1 18 -18 33
-40z m1252 -14 c-3 -14 -12 -26 -18 -26 -24 0 -26 14 -4 37 26 27 31 25 22
-11z m-1003 17 c8 -55 7 -64 -9 -61 -18 3 -27 30 -18 54 6 15 25 20 27 7z
m1337 -28 c-3 -3 -9 2 -12 12 -6 14 -5 15 5 6 7 -7 10 -15 7 -18z m378 13 c5
-7 2 -9 -7 -4 -8 4 -5 0 5 -8 12 -9 14 -16 7 -16 -21 0 -52 20 -46 31 8 13 32
11 41 -3z m284 -20 c25 -11 52 -23 60 -27 30 -16 41 -54 38 -133 -2 -43 0 -78
5 -78 4 0 3 -8 -2 -19 -16 -29 -30 -101 -20 -101 5 0 9 -9 9 -20 0 -11 -7 -20
-15 -20 -8 0 -15 8 -15 18 0 38 -51 51 -64 16 -7 -18 -30 -18 -45 0 -10 12 -4
23 30 58 23 24 48 42 55 40 18 -4 18 30 0 88 -18 61 -53 118 -93 156 -60 58
-41 65 57 22z m-501 -50 c14 -10 36 -18 50 -16 22 3 26 0 23 -22 -6 -46 -24
-95 -40 -107 -26 -21 -47 -15 -94 23 -58 49 -81 85 -72 118 6 27 29 35 37 14
3 -9 7 -7 12 4 9 22 47 15 84 -14z m206 -15 c39 -55 79 -165 71 -199 -4 -16
-1 -23 15 -27 17 -5 20 -11 16 -28 -3 -12 -1 -57 4 -98 6 -42 11 -86 10 -98
-1 -26 2 -27 30 -13 19 11 24 5 40 -45 1 -5 -10 -12 -27 -15 -41 -7 -55 -62
-30 -115 10 -20 16 -39 13 -41 -6 -6 -25 17 -29 36 -2 8 -10 21 -19 27 -19 14
-67 112 -105 212 -14 35 -47 106 -74 158 -28 52 -50 103 -50 114 0 47 67 179
91 179 5 0 24 -21 44 -47z m-1370 20 c-4 -10 -9 -33 -12 -51 -4 -24 -8 -30
-14 -20 -8 12 -3 62 8 81 9 15 25 6 18 -10z m-205 -34 c0 -9 -7 -22 -15 -29
-13 -11 -15 -8 -15 13 0 39 11 62 21 45 5 -7 9 -20 9 -29z m-136 15 c-6 -3 -9
-16 -6 -29 2 -15 0 -25 -7 -25 -12 0 -15 42 -4 53 3 4 11 7 17 6 8 0 8 -2 0
-5z m396 -181 c-5 -66 -13 -93 -25 -81 -3 2 -5 15 -5 29 0 13 0 59 0 101 -1
46 4 87 12 100 12 22 13 20 18 -27 3 -27 3 -82 0 -122z m287 135 c-3 -7 -5 -2
-5 12 0 14 2 19 5 13 2 -7 2 -19 0 -25z m-649 -110 c-2 -15 -11 -24 -25 -26
-27 -4 -29 5 -6 30 22 24 35 23 31 -4z m1922 -43 c0 -7 -7 -15 -15 -19 -11 -4
-15 2 -15 26 0 26 2 29 15 18 8 -7 15 -18 15 -25z m-643 -11 c-3 -4 0 -13 8
-21 19 -19 19 -29 -1 -37 -20 -8 -67 21 -61 37 3 9 20 17 56 26 2 1 2 -2 -2
-5z m-557 -115 c0 -15 -7 -32 -15 -39 -12 -10 -15 -10 -15 4 0 9 -4 16 -10 16
-9 0 -14 -15 -11 -33 1 -5 -3 -6 -9 -2 -13 8 -13 32 1 37 5 2 12 12 14 23 2
11 4 21 4 22 1 1 10 1 21 0 15 -1 20 -8 20 -28z m1170 9 c10 -13 19 -27 20
-33 2 -5 11 -16 21 -23 11 -7 19 -21 19 -30 0 -30 124 -241 151 -257 6 -4 14
-17 19 -30 6 -16 15 -22 27 -19 11 3 34 -8 58 -28 22 -18 59 -46 83 -62 23
-16 42 -33 42 -38 0 -6 6 -8 14 -5 15 6 46 -26 46 -48 0 -8 6 -15 13 -15 6 0
4 -5 -5 -11 -10 -5 -18 -15 -18 -21 0 -6 11 -3 25 6 24 16 26 16 37 -9 7 -15
8 -29 2 -34 -13 -12 -91 7 -98 24 -8 23 4 44 21 38 13 -5 13 -3 2 15 -17 27
-40 36 -51 20 -5 -9 -8 -7 -8 8 0 11 -8 28 -17 37 -16 13 -20 14 -37 1 -16
-11 -17 -17 -8 -26 22 -22 14 -41 -15 -33 -22 5 -25 4 -15 -8 7 -8 9 -17 5
-20 -3 -4 6 -7 20 -7 15 0 27 -4 27 -10 0 -5 -9 -10 -20 -10 -11 0 -20 -7 -20
-15 0 -8 -6 -15 -12 -16 -7 0 -2 -5 11 -10 17 -7 22 -15 18 -29 -3 -11 -1 -20
4 -20 19 0 8 -29 -18 -46 -30 -19 -77 -62 -54 -49 11 6 13 4 8 -9 -5 -12 -3
-15 6 -9 6 4 25 8 41 9 l28 0 -32 -26 c-23 -19 -31 -31 -25 -41 4 -8 -7 0 -24
18 -18 18 -34 40 -36 50 -2 10 -4 19 -5 21 -2 1 -3 5 -4 10 -1 4 -5 13 -10 21
-7 11 -5 13 9 7 14 -5 16 -4 6 8 -9 11 -8 15 4 19 8 4 14 3 14 -1 -3 -20 2
-32 15 -32 17 0 15 22 -3 44 -8 9 -9 16 -3 16 6 0 12 -5 14 -12 3 -9 6 -9 12
0 4 7 -2 14 -17 17 -14 4 -30 18 -36 32 -11 25 -12 25 -26 7 -7 -10 -11 -23
-8 -27 3 -5 9 -3 14 4 7 11 9 11 9 -2 0 -9 -7 -19 -15 -23 -8 -3 -15 0 -15 6
0 6 -3 9 -6 5 -4 -3 -4 -13 0 -22 5 -14 8 -14 33 1 19 11 22 11 11 1 -10 -8
-18 -20 -18 -26 0 -7 -5 -9 -11 -5 -8 4 -8 0 0 -15 9 -16 9 -19 -2 -16 -7 3
-28 44 -47 92 -22 56 -48 103 -77 135 -23 27 -43 56 -43 64 0 9 -12 35 -26 60
l-26 44 24 0 c13 0 29 -5 36 -12 9 -9 12 -8 12 4 0 24 21 34 32 14 5 -9 13
-14 19 -11 5 4 5 -5 -1 -21 -11 -28 3 -59 21 -48 5 3 9 -6 9 -20 0 -14 -4 -26
-10 -26 -6 0 -5 -9 1 -24 7 -14 17 -22 25 -19 8 3 16 -5 20 -21 3 -15 11 -23
17 -19 6 4 8 0 4 -11 -4 -10 -3 -15 3 -11 5 3 26 -6 45 -20 19 -15 40 -25 46
-23 7 2 -4 15 -25 27 -52 32 -87 105 -89 186 -1 35 -4 62 -6 60 -8 -9 -31 26
-59 88 -17 36 -28 68 -24 71 3 3 -2 6 -11 6 -10 0 -17 5 -17 11 0 5 -5 7 -10
4 -8 -5 -7 -11 1 -21 20 -24 0 -29 -21 -6 -12 12 -30 22 -42 22 -12 0 -18 3
-15 7 4 3 1 13 -5 22 -7 9 -8 13 -4 9 13 -11 66 31 66 53 0 20 -15 26 -25 9
-11 -18 -26 1 -19 23 7 22 6 22 -14 4 -21 -20 -48 -15 -35 6 4 6 6 26 4 44 -4
56 18 70 49 31z m-1915 -8 c-3 -11 -8 -32 -11 -47 -14 -81 -34 -86 -34 -8 0
54 8 66 48 74 2 1 1 -8 -3 -19z m1855 -59 c0 -14 -18 -23 -30 -16 -6 4 -8 11
-5 16 8 12 35 12 35 0z m293 -80 c12 -21 14 -32 6 -36 -14 -9 -26 4 -34 38 -9
36 6 35 28 -2z m-2003 -56 c10 -12 10 -18 0 -30 -11 -13 -10 -14 2 -10 9 4 18
0 21 -9 10 -25 -11 -29 -35 -6 -13 12 -31 19 -40 16 -10 -2 -16 0 -12 5 3 5
15 9 27 10 12 0 16 3 10 6 -17 6 -16 33 1 33 7 0 19 -7 26 -15z m1611 -97 c6
-11 8 -22 5 -26 -7 -6 -56 37 -56 49 0 14 41 -4 51 -23z m-1308 -12 c3 -8 0
-17 -7 -19 -10 -4 -12 1 -9 14 6 23 9 24 16 5z m1073 -12 c15 -22 15 -27 3
-35 -20 -12 -25 -11 -44 7 -15 15 -15 18 1 35 21 24 20 24 40 -7z m498 -6 c9
-17 14 -33 12 -35 -7 -8 -46 36 -46 52 0 25 18 17 34 -17z m-1984 1 c0 -5 -4
-9 -10 -9 -5 0 -10 7 -10 16 0 8 5 12 10 9 6 -3 10 -10 10 -16z m87 -41 c-3
-7 -5 -2 -5 12 0 14 2 19 5 13 2 -7 2 -19 0 -25z m1676 -10 c40 -43 144 -224
134 -234 -13 -14 -125 -11 -159 4 -34 15 -40 24 -59 82 -11 36 -28 80 -36 98
-16 37 -11 51 12 32 8 -7 16 -29 16 -49 1 -23 3 -28 6 -13 2 12 9 22 14 22 5
0 9 5 9 11 0 5 -4 7 -10 4 -17 -11 -11 7 8 21 14 11 15 15 3 23 -7 5 -11 13
-8 19 11 17 44 8 70 -20z m-193 -30 c0 -5 -7 -3 -15 6 -8 8 -15 18 -15 22 0 3
7 1 15 -6 8 -7 15 -17 15 -22z m50 2 c0 -5 -4 -10 -9 -10 -6 0 -13 5 -16 10
-3 6 1 10 9 10 9 0 16 -4 16 -10z m-1130 -31 c0 -6 -4 -7 -10 -4 -5 3 -10 11
-10 16 0 6 5 7 10 4 6 -3 10 -11 10 -16z m-474 -103 c-3 -11 -1 -25 5 -32 6
-7 6 -21 0 -37 -5 -14 -7 -28 -3 -32 4 -4 0 -5 -8 -3 -20 4 -29 27 -23 59 3
15 0 30 -6 33 -16 10 -14 -58 3 -99 9 -20 11 -35 5 -35 -15 0 -39 64 -39 103
0 22 9 44 25 63 14 16 25 34 26 39 0 6 5 -1 10 -15 6 -14 8 -34 5 -44z m804
60 c0 -3 -11 -17 -25 -32 -14 -15 -25 -21 -25 -14 0 15 29 50 42 50 4 0 8 -2
8 -4z m-1215 -26 c3 -5 4 -10 1 -10 -2 0 -12 -3 -20 -6 -12 -5 -15 -2 -10 10
7 18 20 21 29 6z m442 -12 c-3 -8 -6 -5 -6 6 -1 11 2 17 5 13 3 -3 4 -12 1
-19z m1088 12 c3 -5 11 -10 16 -10 6 0 8 4 5 9 -4 5 3 7 14 4 20 -5 46 -40 37
-50 -3 -2 -8 5 -12 16 -7 24 -23 27 -39 7 -8 -11 -17 -12 -36 -4 -15 6 -20 12
-12 15 6 3 10 9 6 14 -3 5 -1 9 5 9 5 0 13 -4 16 -10z m142 4 c-3 -3 -12 -4
-19 -1 -8 3 -5 6 6 6 11 1 17 -2 13 -5z m190 -26 c-3 -8 -6 -5 -6 6 -1 11 2
17 5 13 3 -3 4 -12 1 -19z m813 -13 c0 -5 -5 -3 -10 5 -5 8 -10 20 -10 25 0 6
5 3 10 -5 5 -8 10 -19 10 -25z m-1016 19 c9 -3 13 -10 10 -15 -3 -5 2 -16 10
-25 23 -23 20 -44 -6 -44 -38 0 -68 12 -68 25 0 20 40 30 52 14 7 -11 8 -9 4
4 -3 10 -6 22 -6 27 0 5 -8 11 -17 13 -10 3 -13 5 -6 6 6 0 18 -2 27 -5z
m-1499 -33 c3 -5 1 -12 -5 -16 -5 -3 -10 1 -10 9 0 18 6 21 15 7z m1363 -16
c-3 -3 -9 2 -12 12 -6 14 -5 15 5 6 7 -7 10 -15 7 -18z m262 -26 c0 -5 -4 -9
-10 -9 -5 0 -10 7 -10 16 0 8 5 12 10 9 6 -3 10 -10 10 -16z m-83 -65 c-4 -20
-16 -47 -28 -60 -16 -17 -19 -27 -11 -36 11 -14 -3 -108 -17 -108 -4 0 -13 33
-20 73 -11 64 -11 78 3 112 18 43 31 55 60 55 16 0 18 -5 13 -36z m984 25 c20
-10 20 -11 3 -24 -15 -11 -16 -15 -5 -28 7 -9 22 -17 34 -19 20 -3 22 -10 25
-70 3 -65 -8 -108 -28 -108 -6 0 -10 10 -10 23 0 18 -2 19 -10 7 -8 -13 -10
-12 -10 3 0 9 -4 17 -10 17 -5 0 -10 4 -10 10 0 5 6 7 14 4 10 -4 15 7 18 43
5 52 1 70 -9 35 -3 -12 -9 -20 -13 -17 -5 3 -6 14 -3 25 4 13 -3 30 -17 45
-18 19 -20 27 -11 44 13 24 15 25 42 10z m-1468 -24 c-3 -9 -8 -14 -10 -11 -3
3 -2 9 2 15 9 16 15 13 8 -4z m206 -7 c14 -9 16 -14 7 -23 -20 -20 -53 -24
-53 -6 -3 41 12 50 46 29z m388 -50 c-3 -7 -5 -2 -5 12 0 14 2 19 5 13 2 -7 2
-19 0 -25z m136 -29 c-6 -6 -16 -8 -22 -5 -15 10 -14 43 2 49 17 6 33 -31 20
-44z m891 37 c-3 -7 2 -16 11 -20 9 -3 13 -10 10 -16 -4 -6 -14 -2 -27 9 -11
11 -17 24 -13 30 9 16 25 13 19 -3z m-1905 -42 c4 3 8 -6 9 -20 2 -30 -32 -34
-48 -4 -10 18 -7 24 13 21 4 0 7 5 8 12 0 9 2 9 6 -1 2 -6 8 -10 12 -8z m-539
-17 c0 -7 12 -18 28 -24 24 -9 25 -10 4 -10 -28 1 -76 47 -49 47 9 0 17 -6 17
-13z m2060 -17 c0 -5 -4 -10 -10 -10 -5 0 -10 5 -10 10 0 6 5 10 10 10 6 0 10
-4 10 -10z m49 -65 c0 -5 -4 -3 -9 5 -5 8 -9 22 -9 30 0 16 17 -16 18 -35z
m-2035 19 c5 -14 4 -15 -9 -4 -17 14 -19 20 -6 20 5 0 12 -7 15 -16z m735 -55
c13 -33 21 -63 18 -65 -3 -3 -13 19 -22 48 -10 29 -20 59 -23 66 -2 6 -2 12 1
12 2 0 14 -27 26 -61z m821 50 c63 -13 67 -33 5 -25 -57 8 -76 16 -69 27 6 11
3 11 64 -2z m880 -45 c0 -8 -4 -12 -10 -9 -5 3 -10 13 -10 21 0 8 5 12 10 9 6
-3 10 -13 10 -21z m-420 1 c0 -9 -6 -12 -15 -9 -8 4 -15 10 -15 15 0 5 7 9 15
9 8 0 15 -7 15 -15z m160 -19 c-14 -14 -24 0 -16 21 6 15 8 15 16 3 6 -9 5
-19 0 -24z m296 -23 c-4 -4 -11 -1 -16 7 -16 25 -11 35 7 17 9 -9 13 -20 9
-24z m-817 6 c7 11 11 9 20 -8 7 -12 9 -26 6 -31 -8 -13 -65 30 -65 49 0 11 4
10 15 -5 12 -15 16 -16 24 -5z m-1670 -12 c12 -15 12 -17 -3 -11 -9 3 -16 13
-16 22 0 8 1 13 3 11 1 -2 9 -12 16 -22z m101 -8 c0 -6 -4 -7 -10 -4 -5 3 -10
11 -10 16 0 6 5 7 10 4 6 -3 10 -11 10 -16z m1761 -2 c-13 -13 -26 -3 -16 12
3 6 11 8 17 5 6 -4 6 -10 -1 -17z m289 -9 c0 -26 -13 -16 -17 13 -2 12 1 18 7
14 5 -3 10 -16 10 -27z m-2270 6 c0 -8 -5 -12 -10 -9 -6 4 -8 11 -5 16 9 14
15 11 15 -7z m80 6 c0 -5 -4 -10 -10 -10 -5 0 -10 5 -10 10 0 6 5 10 10 10 6
0 10 -4 10 -10z"/>
<path d="M686 1867 c3 -10 9 -15 12 -12 3 3 0 11 -7 18 -10 9 -11 8 -5 -6z"/>
<path d="M720 1824 c0 -5 7 -18 15 -28 8 -11 15 -16 15 -10 0 5 -7 18 -15 28
-8 11 -15 16 -15 10z"/>
<path d="M690 1806 c0 -3 16 -31 35 -63 36 -60 48 -61 18 -1 -9 18 -19 39 -23
47 -6 15 -30 28 -30 17z"/>
<path d="M690 1737 c10 -29 54 -82 48 -58 -2 8 -10 22 -18 31 -8 9 -21 25 -27
36 -11 16 -11 15 -3 -9z"/>
<path d="M886 1725 c4 -8 10 -15 15 -15 4 0 6 7 3 15 -4 8 -10 15 -15 15 -4 0
-6 -7 -3 -15z"/>
<path d="M911 1692 c-1 -8 5 -28 13 -45 8 -18 17 -39 19 -47 4 -10 5 -9 5 5 1
23 -36 107 -37 87z"/>
<path d="M1186 1395 c-9 -26 -7 -32 5 -12 6 10 9 21 6 23 -2 3 -7 -2 -11 -11z"/>
<path d="M1144 1374 c-4 -14 -2 -30 5 -37 8 -8 11 -1 11 26 0 43 -7 48 -16 11z"/>
<path d="M1215 1290 c-9 -28 4 -68 16 -49 12 18 11 56 0 64 -5 3 -12 -4 -16
-15z"/>
<path d="M1251 1229 c-6 -18 -9 -34 -7 -36 2 -2 9 10 15 28 6 18 9 34 7 36 -2
2 -9 -10 -15 -28z"/>
<path d="M1168 1106 c-20 -15 -23 -26 -8 -26 5 0 14 9 20 20 12 23 11 24 -12
6z"/>
<path d="M1210 1111 c0 -5 5 -13 10 -16 6 -3 10 -2 10 4 0 5 -4 13 -10 16 -5
3 -10 2 -10 -4z"/>
<path d="M890 889 c0 -5 5 -7 10 -4 6 3 10 8 10 11 0 2 -4 4 -10 4 -5 0 -10
-5 -10 -11z"/>
<path d="M1737 790 c-3 -13 -10 -18 -21 -14 -22 9 -20 -3 3 -16 16 -8 21 -5
30 20 5 17 6 30 2 30 -5 0 -11 -9 -14 -20z"/>
<path d="M1523 577 c0 -8 6 -14 14 -14 9 0 10 4 2 14 -6 7 -12 13 -14 13 -1 0
-2 -6 -2 -13z"/>
<path d="M1225 550 c28 -12 37 -12 30 0 -3 6 -16 10 -28 9 -21 0 -21 -1 -2 -9z"/>
<path d="M1710 1251 c0 -5 7 -15 17 -22 15 -13 15 -12 4 9 -12 23 -21 28 -21
13z"/>
<path d="M1860 1285 c-10 -12 -10 -15 4 -15 9 0 16 7 16 15 0 8 -2 15 -4 15
-2 0 -9 -7 -16 -15z"/>
<path d="M2445 459 c-4 -6 -5 -12 -2 -15 2 -3 7 2 10 11 7 17 1 20 -8 4z"/>
<path d="M2806 357 c3 -10 9 -15 12 -12 3 3 0 11 -7 18 -10 9 -11 8 -5 -6z"/>
<path d="M2204 554 c3 -9 6 -18 6 -20 0 -3 4 -3 10 1 11 7 2 35 -12 35 -6 0
-7 -7 -4 -16z"/>
<path d="M2774 179 c-3 -6 -1 -16 5 -22 8 -8 11 -5 11 11 0 24 -5 28 -16 11z"/>
<path d="M473 3448 c-13 -6 -23 -15 -23 -19 0 -6 55 15 69 28 10 7 -26 1 -46
-9z"/>
<path d="M2520 3456 c0 -2 8 -10 18 -17 15 -13 16 -12 3 4 -13 16 -21 21 -21
13z"/>
<path d="M2680 3436 c0 -13 -4 -26 -9 -28 -4 -1 8 -11 28 -20 l36 -17 -24 19
c-17 14 -22 27 -19 45 3 14 1 25 -3 25 -5 0 -9 -11 -9 -24z"/>
<path d="M2573 3423 c9 -2 25 -2 35 0 9 3 1 5 -18 5 -19 0 -27 -2 -17 -5z"/>
<path d="M2807 3343 c-2 -4 4 -21 15 -38 l20 -30 -7 30 c-7 33 -20 51 -28 38z"/>
<path d="M765 3330 c-3 -5 -1 -10 4 -10 6 0 11 5 11 10 0 6 -2 10 -4 10 -3 0
-8 -4 -11 -10z"/>
<path d="M806 3328 c3 -4 11 -5 19 -1 21 7 19 12 -4 10 -11 0 -18 -5 -15 -9z"/>
<path d="M423 3253 c-16 -6 -18 -103 -3 -103 6 0 10 13 10 28 0 16 7 37 15 48
24 31 15 42 -22 27z"/>
<path d="M970 3209 c0 -5 5 -7 10 -4 6 3 10 8 10 11 0 2 -4 4 -10 4 -5 0 -10
-5 -10 -11z"/>
<path d="M2873 3205 c0 -8 6 -16 14 -19 11 -4 11 -1 3 14 -13 24 -17 25 -17 5z"/>
<path d="M845 3190 c-3 -6 1 -7 9 -4 18 7 21 14 7 14 -6 0 -13 -4 -16 -10z"/>
<path d="M2821 3178 c1 -13 5 -36 9 -53 7 -27 8 -25 9 17 0 26 -3 50 -9 53 -6
3 -9 -4 -9 -17z"/>
<path d="M2927 3193 c-10 -9 -8 -43 2 -43 5 0 9 11 9 25 0 27 -1 28 -11 18z"/>
<path d="M2905 3116 c-19 -29 -14 -90 16 -176 10 -30 23 -73 28 -95 8 -31 9
-14 5 75 -6 150 -14 220 -25 220 -5 0 -16 -11 -24 -24z"/>
<path d="M494 3063 c-7 -28 29 -113 48 -113 5 0 7 -8 3 -19 -3 -12 0 -21 10
-25 9 -3 13 -10 10 -16 -6 -9 17 -4 40 9 6 3 16 6 23 7 28 5 42 28 42 70 0 24
-4 44 -9 44 -12 0 -21 38 -10 42 4 2 5 9 0 17 -9 15 -51 7 -51 -10 0 -6 4 -8
9 -4 5 3 12 1 16 -5 3 -5 1 -10 -5 -10 -7 0 -8 -6 0 -19 5 -11 10 -33 10 -50
0 -16 6 -32 13 -34 9 -4 8 -8 -3 -16 -22 -16 -24 -15 -45 27 -10 20 -29 51
-42 69 -13 17 -23 39 -23 47 0 27 -29 18 -36 -11z"/>
<path d="M261 3056 c-9 -11 -19 -13 -37 -6 -27 11 -30 7 -36 -47 -3 -21 0 -34
9 -38 8 -2 11 -9 8 -15 -3 -6 4 -10 16 -10 16 0 20 5 16 20 -3 10 1 24 9 31 8
6 14 19 14 28 0 9 5 22 12 29 6 6 9 14 6 17 -3 3 -11 -1 -17 -9z m-21 -36 c-8
-5 -22 -10 -30 -10 -13 0 -13 1 0 10 8 5 22 10 30 10 13 0 13 -1 0 -10z"/>
<path d="M1435 3020 c-3 -5 -1 -10 4 -10 6 0 11 5 11 10 0 6 -2 10 -4 10 -3 0
-8 -4 -11 -10z"/>
<path d="M2640 2986 c0 -2 8 -10 18 -17 15 -13 16 -12 3 4 -13 16 -21 21 -21
13z"/>
<path d="M2360 2956 c0 -2 7 -7 16 -10 8 -3 12 -2 9 4 -6 10 -25 14 -25 6z"/>
<path d="M29 2938 c-7 -26 -7 -48 1 -43 15 9 12 -2 -6 -19 -15 -15 -28 -56
-18 -56 3 0 14 5 24 10 20 11 75 -4 66 -18 -2 -4 11 -7 29 -7 18 0 31 3 28 8
-2 4 2 7 10 7 7 0 24 12 38 27 l24 27 -29 -22 c-48 -37 -109 -26 -111 20 -3
42 -16 68 -36 68 -10 0 -19 -1 -20 -2z"/>
<path d="M684 2925 c3 -8 1 -15 -4 -15 -6 0 -10 -5 -10 -12 0 -9 3 -9 12 0 15
15 19 42 6 42 -6 0 -8 -7 -4 -15z"/>
<path d="M509 2894 c12 -21 21 -45 21 -52 0 -7 4 -10 10 -7 11 7 -22 79 -40
90 -6 4 -2 -10 9 -31z"/>
<path d="M300 2874 c0 -8 -4 -14 -8 -14 -5 0 -9 -19 -9 -42 0 -24 1 -35 4 -25
3 11 10 16 20 13 8 -3 16 -6 19 -6 9 0 34 -61 29 -70 -3 -6 3 -10 14 -10 23 0
28 15 8 23 -8 3 -23 29 -35 59 -12 29 -16 45 -9 35 31 -48 36 -49 20 -3 -11
31 -25 50 -35 52 -10 1 -18 -4 -18 -12z"/>
<path d="M613 2863 c-10 -4 -39 -79 -48 -123 -1 -3 -5 -16 -9 -29 -5 -13 -4
-27 2 -33 13 -13 77 116 66 133 -4 7 -3 9 3 6 16 -10 23 16 9 34 -6 9 -17 14
-23 12z"/>
<path d="M40 2790 c-13 -9 -13 -10 0 -10 8 0 22 5 30 10 13 9 13 10 0 10 -8 0
-22 -5 -30 -10z"/>
<path d="M146 2763 c-6 -14 -5 -15 5 -6 7 7 10 15 7 18 -3 3 -9 -2 -12 -12z"/>
<path d="M65 2761 c3 -2 0 -10 -6 -17 -6 -8 -6 -14 0 -18 5 -4 12 -2 16 4 4 7
13 7 28 -1 19 -9 20 -8 6 3 -9 7 -14 18 -12 25 3 7 -4 11 -16 10 -11 -1 -18
-3 -16 -6z"/>
<path d="M150 2706 c0 -2 7 -7 16 -10 8 -3 12 -2 9 4 -6 10 -25 14 -25 6z"/>
<path d="M215 2700 c-3 -5 -1 -10 4 -10 6 0 11 5 11 10 0 6 -2 10 -4 10 -3 0
-8 -4 -11 -10z"/>
<path d="M1198 2679 c-10 -5 -18 -14 -18 -19 0 -17 39 -50 60 -50 17 0 20 7
20 40 0 35 -3 40 -22 40 -13 0 -31 -5 -40 -11z"/>
<path d="M2027 2630 c3 -11 7 -20 9 -20 2 0 4 9 4 20 0 11 -4 20 -9 20 -5 0
-7 -9 -4 -20z"/>
<path d="M34 2620 c-27 -11 -38 -27 -24 -35 5 -3 10 0 10 7 0 8 12 19 28 25
15 6 23 11 17 11 -5 1 -20 -3 -31 -8z"/>
<path d="M3122 2584 c-12 -8 -22 -20 -22 -26 0 -7 6 -5 13 4 6 8 21 20 32 26
11 6 15 12 10 12 -6 0 -21 -7 -33 -16z"/>
<path d="M3085 2579 c-4 -6 -5 -12 -2 -15 2 -3 7 2 10 11 7 17 1 20 -8 4z"/>
<path d="M3032 2513 c-5 -10 -7 -24 -5 -31 3 -8 -4 -22 -16 -33 -26 -24 -26
-29 -2 -22 11 3 22 15 26 26 6 21 6 21 14 3 7 -19 8 -19 13 2 7 24 36 30 44 8
4 -11 11 -11 42 0 84 30 264 10 485 -53 100 -28 156 -53 176 -77 14 -17 18
-77 6 -96 -4 -7 -1 -16 6 -21 12 -7 10 -16 -9 -52 -31 -58 -79 -110 -97 -104
-10 4 -13 -1 -10 -21 1 -15 3 -35 4 -45 0 -10 6 -15 11 -12 6 4 9 3 8 -2 -1
-4 3 -18 10 -30 16 -29 -2 -31 -32 -4 -29 26 -66 36 -66 18 0 -8 -7 -28 -15
-43 -8 -16 -15 -38 -14 -49 0 -12 7 -3 17 23 17 44 35 51 40 14 2 -12 7 -20
11 -17 5 2 13 -7 19 -21 13 -27 10 -30 -52 -44 l-31 -8 35 -1 c42 -1 102 32
94 53 -3 8 2 28 11 45 10 21 13 37 7 49 -15 27 -7 49 36 100 57 68 63 84 69
182 l6 89 -38 36 c-36 36 -116 78 -139 73 -6 -1 -22 5 -36 14 -47 31 -238 68
-350 68 -36 0 -101 -9 -145 -20 -80 -20 -80 -20 -94 0 -17 25 -28 25 -39 3z
m528 -34 c17 -10 -60 -1 -100 12 -16 5 -4 6 30 3 30 -4 62 -10 70 -15z m70
-19 c0 -5 -4 -10 -9 -10 -6 0 -13 5 -16 10 -3 6 1 10 9 10 9 0 16 -4 16 -10z"/>
<path d="M140 2490 c-9 -6 -10 -10 -3 -10 6 0 15 5 18 10 8 12 4 12 -15 0z"/>
<path d="M0 2440 c0 -5 7 -7 15 -4 19 8 19 14 0 14 -8 0 -15 -4 -15 -10z"/>
<path d="M95 2417 c-58 -24 -60 -25 -53 -33 3 -3 32 8 64 25 68 35 62 39 -11
8z"/>
<path d="M1285 2387 c-4 -16 -3 -38 3 -50 9 -20 10 -21 17 -4 4 10 3 32 -2 50
l-10 32 -8 -28z"/>
<path d="M3138 2330 c-4 -19 -9 -53 -12 -75 l-5 -40 15 34 c8 18 14 52 12 75
l-4 41 -6 -35z"/>
<path d="M2890 2200 c-13 -11 -19 -20 -13 -20 5 0 18 9 28 20 10 11 16 20 13
20 -3 0 -15 -9 -28 -20z"/>
<path d="M3073 2197 c-34 -23 -46 -45 -15 -28 16 9 60 52 51 50 -2 0 -19 -10
-36 -22z"/>
<path d="M3015 2160 c-3 -5 -1 -10 4 -10 6 0 11 5 11 10 0 6 -2 10 -4 10 -3 0
-8 -4 -11 -10z"/>
<path d="M3769 2153 c-13 -16 -12 -17 4 -4 16 13 21 21 13 21 -2 0 -10 -8 -17
-17z"/>
<path d="M2873 2091 c-12 -10 -20 -21 -17 -24 3 -3 -3 -18 -13 -33 l-18 -29
33 24 c18 13 31 28 29 35 -2 6 0 19 5 29 11 21 9 21 -19 -2z"/>
<path d="M2910 2085 c-7 -9 -11 -17 -9 -20 3 -2 10 5 17 15 14 24 10 26 -8 5z"/>
<path d="M2535 2060 c-3 -5 -1 -10 4 -10 6 0 11 5 11 10 0 6 -2 10 -4 10 -3 0
-8 -4 -11 -10z"/>
<path d="M2879 2021 c-45 -40 -50 -68 -6 -35 21 16 62 74 53 74 -2 0 -23 -18
-47 -39z"/>
<path d="M2929 2010 c-18 -22 -41 -40 -51 -40 -10 0 -18 -4 -18 -10 0 -5 5
-10 11 -10 5 0 7 -4 4 -10 -3 -5 -13 -10 -21 -10 -9 0 -12 5 -8 11 4 8 0 8
-15 0 -11 -7 -22 -9 -22 -6 -1 3 -3 10 -4 15 -1 6 -3 22 -4 38 l-1 27 -16 -30
c-8 -16 -24 -40 -35 -51 -15 -16 -17 -24 -8 -29 7 -5 17 -1 23 7 12 17 66 14
66 -3 0 -8 -22 -13 -42 -10 -5 0 -8 -5 -8 -12 0 -7 -20 -38 -45 -68 -43 -53
-56 -67 -102 -112 -13 -12 -23 -26 -23 -32 0 -18 -60 -83 -83 -91 -21 -7 -21
-7 -2 -14 11 -4 28 -3 38 2 9 5 22 6 28 2 6 -3 10 0 8 7 -4 34 -3 34 175 229
23 25 53 53 66 63 l25 18 -25 -7 c-24 -7 -24 -6 5 18 17 14 44 27 61 30 31 4
31 3 22 -23 -5 -16 -8 -36 -5 -46 3 -13 5 -10 6 7 0 14 8 36 17 48 8 12 12 27
9 32 -3 6 -1 10 6 10 7 0 10 3 7 6 -4 3 -17 -2 -30 -10 -39 -26 -40 -7 -3 46
42 58 38 63 -6 8z"/>
<path d="M2770 1726 c0 -2 8 -10 18 -17 15 -13 16 -12 3 4 -13 16 -21 21 -21
13z"/>
<path d="M2710 1662 c0 -5 14 -21 32 -38 18 -16 26 -20 18 -9 -23 30 -50 56
-50 47z"/>
<path d="M2847 1583 c-4 -3 -7 -16 -7 -29 0 -12 -3 -24 -7 -27 -5 -2 -3 -2 4
-1 17 4 26 -32 14 -53 -8 -14 -10 -15 -11 -3 0 13 -2 13 -9 1 -5 -8 -5 -26 -1
-40 4 -14 14 -46 21 -71 16 -58 26 -70 55 -70 15 0 24 -6 24 -16 0 -11 -5 -14
-16 -10 -9 3 -14 3 -12 -1 3 -5 10 -23 17 -40 7 -18 17 -30 22 -27 5 3 6 -2 3
-10 -10 -25 30 -38 79 -26 72 19 77 21 72 30 -3 4 5 10 16 13 18 5 26 -5 55
-69 37 -82 44 -114 20 -92 -8 7 -14 15 -13 18 4 14 -50 79 -61 75 -8 -3 -20
-5 -28 -5 -10 0 -12 -8 -7 -31 3 -17 0 -68 -7 -114 -12 -80 -12 -86 10 -146
21 -54 84 -139 104 -139 4 0 27 -19 52 -42 24 -22 56 -49 71 -58 16 -10 42
-33 60 -51 35 -38 103 -157 103 -182 0 -8 17 -29 37 -46 48 -40 36 -50 -23
-20 -59 31 -147 125 -141 151 3 10 1 15 -5 12 -12 -7 -49 26 -42 37 3 5 -9 9
-25 9 -17 0 -31 -4 -31 -10 0 -5 5 -10 12 -10 6 0 9 -3 5 -6 -3 -3 -15 1 -27
9 -14 10 -17 16 -9 19 8 3 4 12 -12 28 -13 12 -19 20 -13 17 7 -4 15 0 18 9 3
9 2 12 -4 9 -11 -7 -54 22 -96 64 -28 28 -42 22 -27 -12 8 -16 8 -29 0 -42 -8
-15 -6 -22 11 -35 20 -17 50 -105 39 -116 -3 -3 -12 15 -22 39 -9 24 -32 61
-52 83 -19 21 -39 50 -45 64 -11 30 -2 73 15 65 7 -4 1 3 -12 14 -13 12 -29
38 -36 58 -16 48 -35 55 -35 14 0 -23 -6 -34 -22 -40 l-22 -8 22 -5 c22 -6 31
-28 12 -28 -5 0 -10 -7 -10 -15 0 -8 4 -15 9 -15 5 0 13 -9 16 -20 4 -11 16
-31 28 -43 49 -51 70 -82 90 -130 19 -46 20 -52 5 -77 -9 -16 -12 -32 -8 -37
5 -4 10 -21 12 -38 3 -27 0 -30 -27 -32 -16 0 -34 -2 -39 -2 -5 -1 -3 -7 3
-15 9 -10 8 -15 -3 -19 -13 -5 -12 -14 9 -59 14 -29 25 -59 25 -66 0 -21 32
-76 52 -90 10 -7 16 -18 13 -23 -4 -5 16 -9 45 -9 32 0 49 4 45 10 -10 16 5
72 18 67 7 -2 11 -15 9 -28 -2 -18 0 -21 9 -12 17 17 19 61 4 66 -21 9 -27 70
-10 110 17 41 29 46 44 20 10 -17 10 -17 11 0 0 9 4 17 8 17 5 0 7 -13 4 -29
-5 -33 -32 -33 -32 0 0 34 -17 20 -24 -18 -9 -58 -8 -63 22 -74 15 -7 22 -13
15 -16 -7 -3 -13 -11 -13 -18 0 -7 6 -15 13 -18 9 -3 9 -9 -2 -29 -22 -42 -9
-48 102 -48 l102 0 23 41 c19 33 22 49 16 82 -8 52 -20 69 -73 107 -45 33 -49
55 -11 55 16 0 32 -11 48 -35 28 -42 50 -56 65 -41 8 8 7 17 -2 35 -17 31 -6
49 26 41 18 -4 29 -1 39 12 25 33 17 -26 -11 -81 -14 -27 -25 -62 -25 -76 0
-15 -9 -39 -20 -52 -10 -14 -16 -28 -13 -32 3 -3 -1 -6 -10 -6 -10 0 -17 -3
-18 -7 0 -5 -2 -16 -4 -25 -2 -14 4 -18 26 -18 27 0 29 2 25 34 -3 27 -1 34
10 29 10 -4 14 2 14 20 0 14 6 29 13 33 6 4 9 4 5 0 -4 -5 -3 -18 2 -31 7 -17
4 -27 -9 -39 -29 -27 -21 -42 22 -45 22 -1 43 3 47 8 4 7 17 8 40 1 19 -6 53
-10 74 -10 39 0 39 1 20 18 -10 9 -37 30 -59 47 -54 40 -67 53 -61 63 3 5 7
21 10 36 3 16 7 31 10 34 3 2 24 -12 46 -32 22 -20 42 -36 45 -36 2 0 4 20 3
44 -2 35 -5 43 -15 34 -10 -8 -13 -7 -13 3 0 11 -2 11 -9 1 -6 -10 -10 -10
-21 2 -7 9 -17 13 -23 9 -6 -3 -7 -1 -3 5 4 7 2 12 -4 12 -6 0 -8 5 -5 10 3 6
2 10 -3 10 -17 0 -83 70 -77 80 4 6 3 24 0 42 -5 20 -10 26 -15 18 -16 -26
-25 20 -40 203 -9 110 -9 133 6 175 9 26 17 71 19 101 2 29 8 57 15 61 13 8
21 81 11 99 -5 8 -11 -8 -15 -39 -8 -60 -24 -70 -66 -40 -16 12 -30 18 -30 14
0 -4 -11 3 -25 16 -28 26 -46 20 -27 -10 7 -11 12 -28 12 -37 0 -14 -2 -15 -9
-5 -5 9 -10 -3 -15 -35 -3 -26 -12 -79 -19 -118 -11 -61 -16 -70 -32 -67 -16
3 -18 1 -7 -9 6 -7 12 -23 12 -36 0 -22 -1 -22 -17 -5 -59 58 -94 123 -118
218 -14 55 -37 135 -51 179 -14 44 -26 99 -26 122 0 42 -17 61 -41 46 -7 -4
-20 -9 -30 -10 -10 -2 -30 -9 -45 -17 -23 -12 -28 -12 -44 8 -17 20 -19 20
-28 4 -6 -10 -15 -18 -21 -18 -5 0 -4 9 3 19 10 16 9 23 -5 39 -9 10 -17 25
-17 33 0 10 -11 15 -36 16 -41 1 -57 18 -48 48 3 11 5 25 4 30 -1 6 -4 54 -7
108 -4 90 -9 107 -26 90z m116 -346 c7 3 8 2 4 -2 -14 -16 -36 -14 -29 3 4 10
7 12 10 4 2 -7 9 -9 15 -5z m331 -794 c28 -35 108 -185 102 -190 -10 -10 -25
10 -57 77 -19 38 -37 70 -41 70 -5 0 -8 6 -8 14 0 7 -7 19 -15 26 -15 12 -20
30 -9 30 3 0 16 -12 28 -27z m-92 -43 c2 -14 7 -30 11 -37 4 -6 2 -15 -4 -19
-6 -3 -15 -1 -19 6 -4 7 -13 9 -20 5 -8 -5 -11 -3 -8 6 3 8 10 14 16 14 5 0
14 4 19 9 4 5 3 6 -3 3 -7 -4 -11 5 -12 25 -1 35 15 26 20 -12z m-45 -17 c-11
-25 -28 -26 -35 -3 -3 7 0 10 7 6 6 -4 11 -1 11 7 0 7 6 14 14 14 11 0 12 -5
3 -24z m58 -84 c19 -35 10 -54 -11 -25 -13 19 -20 56 -9 56 2 0 12 -14 20 -31z
m49 -14 c3 -8 1 -15 -4 -15 -6 0 -10 7 -10 15 0 8 2 15 4 15 2 0 6 -7 10 -15z
m-94 -20 c28 -15 43 -55 20 -55 -5 0 -10 5 -10 11 0 5 -4 8 -9 5 -5 -4 -7 4
-4 16 4 21 3 22 -7 4 -10 -15 -14 -16 -21 -5 -6 10 -9 10 -9 2 0 -7 -7 -10
-15 -7 -11 4 -15 -1 -16 -17 0 -13 -3 -18 -6 -11 -7 19 17 72 34 72 8 0 27 -7
43 -15z m506 -100 c-2 -5 -8 -9 -14 -8 -5 1 -8 -7 -4 -19 3 -15 1 -19 -9 -16
-8 3 -14 18 -15 35 -1 17 -4 38 -7 46 -3 8 -3 18 1 22 9 8 53 -47 48 -60z
m-310 30 c13 -20 19 -23 31 -14 18 16 29 3 13 -16 -11 -13 -10 -15 1 -10 10 4
15 -3 17 -20 1 -14 7 -36 13 -47 9 -17 9 -20 -3 -16 -11 5 -13 -1 -10 -23 3
-20 -1 -31 -12 -35 -28 -11 -45 13 -39 57 5 35 3 41 -16 46 -22 6 -27 18 -12
27 5 3 14 -1 21 -9 14 -17 40 -20 40 -4 0 5 -4 8 -8 5 -9 -6 -42 29 -42 44 0
6 -5 9 -12 8 -6 -2 -14 5 -16 15 -5 25 15 21 34 -8z m-234 -12 c-6 -10 -20
-19 -32 -20 -21 -2 -20 -1 5 23 30 28 42 26 27 -3z m203 -31 c-7 -8 -35 7 -35
18 0 6 7 6 20 -2 10 -7 17 -14 15 -16z m160 -22 c3 -5 -3 -10 -14 -10 -12 0
-21 5 -21 10 0 6 6 10 14 10 8 0 18 -4 21 -10z m-125 -114 c0 -5 -13 3 -30 19
-16 16 -30 36 -30 44 1 17 60 -46 60 -63z"/>
<path d="M3395 100 c3 -5 10 -10 16 -10 5 0 9 5 9 10 0 6 -7 10 -16 10 -8 0
-12 -4 -9 -10z"/>
<path d="M2770 1550 c0 -5 5 -10 11 -10 5 0 7 5 4 10 -3 6 -8 10 -11 10 -2 0
-4 -4 -4 -10z"/>
<path d="M3010 1530 c-25 -25 -25 -32 0 -61 l19 -24 1 33 c0 39 26 45 36 7 5
-21 9 -23 25 -14 11 5 19 6 19 0 0 -5 8 -12 17 -15 15 -6 15 -5 -1 13 -10 11
-16 23 -13 28 3 4 -15 18 -39 31 l-44 22 -20 -20z m80 -31 c0 -6 -4 -7 -10 -4
-5 3 -10 11 -10 16 0 6 5 7 10 4 6 -3 10 -11 10 -16z"/>
<path d="M2933 1463 c4 -7 -2 -18 -15 -27 -23 -16 -19 -20 20 -16 15 1 25 -6
32 -22 9 -21 9 -20 7 11 -1 23 -10 39 -27 50 -13 9 -21 11 -17 4z"/>
<path d="M3058 1438 c6 -7 13 -30 17 -50 4 -20 25 -61 47 -90 26 -34 37 -44
32 -28 -4 14 -8 41 -9 60 -1 27 -10 45 -43 78 -40 39 -68 58 -44 30z"/>
<path d="M53 1403 c-19 -13 -20 -17 -8 -29 16 -16 29 -19 20 -4 -3 5 -1 19 5
30 13 24 12 24 -17 3z"/>
<path d="M3169 1367 c6 -8 7 -18 3 -22 -4 -5 -1 -5 6 -1 10 6 10 11 1 22 -6 8
-14 14 -16 14 -3 0 0 -6 6 -13z"/>
<path d="M3185 1327 c-12 -14 -8 -57 6 -57 5 0 9 16 9 35 0 39 -1 40 -15 22z"/>
<path d="M6 1295 c-9 -26 -7 -32 5 -12 6 10 9 21 6 23 -2 3 -7 -2 -11 -11z"/>
<path d="M98 1277 c-14 -6 -29 -19 -32 -30 -4 -15 -10 -18 -30 -13 -31 8 -44
-11 -22 -32 16 -16 17 -16 10 1 -6 16 -2 18 25 15 20 -2 35 3 41 12 7 10 10
11 10 3 0 -7 5 -13 10 -13 5 0 9 3 9 8 -6 38 32 66 50 35 5 -10 11 -12 15 -5
14 23 -44 35 -86 19z"/>
<path d="M145 1250 c5 -8 10 -21 10 -29 0 -8 7 -17 15 -19 12 -4 13 -3 3 10
-7 8 -11 17 -8 20 3 3 -2 11 -12 19 -15 12 -16 12 -8 -1z"/>
<path d="M205 1191 c-4 -25 -9 -54 -12 -63 -5 -19 21 -26 32 -8 3 6 1 10 -4
10 -18 0 -12 23 15 64 15 21 22 36 15 32 -6 -4 -11 -3 -11 2 0 5 -7 9 -15 9
-9 0 -16 -15 -20 -46z"/>
<path d="M3210 1212 c0 -4 23 -14 50 -24 28 -9 50 -12 50 -7 0 5 -4 10 -10 10
-20 3 -25 4 -37 12 -18 11 -53 17 -53 9z"/>
<path d="M3561 1201 c-10 -7 -9 -9 3 -14 9 -4 23 -4 31 -1 17 7 20 24 5 24 -5
0 -10 -6 -10 -12 0 -10 -2 -10 -8 -1 -4 7 -13 9 -21 4z"/>
<path d="M3444 1188 c10 -6 22 -6 26 -2 5 5 -3 10 -18 11 -22 1 -24 0 -8 -9z"/>
<path d="M127 1135 c3 -8 9 -12 14 -9 12 7 11 11 -5 17 -10 4 -13 1 -9 -8z"/>
<path d="M3771 1129 c18 -11 39 -11 39 0 0 5 -12 9 -26 9 -18 0 -22 -3 -13 -9z"/>
<path d="M3602 1121 c2 -7 7 -12 11 -12 12 1 9 15 -3 20 -7 2 -11 -2 -8 -8z"/>
<path d="M2611 1080 c-13 -11 -18 -20 -11 -20 7 0 10 -7 6 -16 -10 -25 13 -5
29 27 18 34 10 37 -24 9z"/>
<path d="M3635 1057 c-4 -10 -5 -21 -1 -24 10 -10 18 4 13 24 -4 17 -4 17 -12
0z"/>
<path d="M65 1033 c2 -10 4 -21 4 -25 1 -5 11 -8 24 -7 21 0 21 1 2 9 -11 5
-14 9 -7 9 10 1 10 4 -2 16 -19 20 -25 19 -21 -2z"/>
<path d="M563 1012 c1 -12 5 -22 10 -22 4 0 6 -3 4 -7 -2 -5 9 -18 24 -31 22
-18 29 -20 29 -9 0 8 -7 17 -15 21 -8 3 -24 20 -34 38 -17 26 -20 28 -18 10z"/>
<path d="M0 1011 c0 -5 7 -15 17 -22 15 -13 15 -12 4 9 -12 23 -21 28 -21 13z"/>
<path d="M691 1008 c0 -9 -4 -25 -7 -35 -5 -17 -5 -17 6 0 6 10 9 25 7 35 -4
15 -5 15 -6 0z"/>
<path d="M3750 1010 c-12 -7 -10 -9 8 -7 12 0 22 5 22 9 0 11 -12 10 -30 -2z"/>
<path d="M2632 979 c-37 -34 -38 -63 -2 -101 18 -20 18 -20 34 10 21 40 20 45
-3 32 -25 -13 -36 2 -21 30 14 27 26 25 56 -7 l24 -26 -26 -28 c-30 -32 -34
-25 61 -103 33 -27 72 -61 87 -75 63 -60 78 -65 53 -18 -16 32 -9 62 24 91 11
10 18 22 16 27 -3 4 2 12 11 17 15 8 15 11 -5 31 -12 12 -58 37 -101 56 -44
18 -99 47 -122 64 -23 17 -44 31 -47 31 -4 0 -21 -14 -39 -31z"/>
<path d="M103 982 c-7 -4 -9 -13 -4 -21 6 -9 10 -7 14 8 3 12 4 21 4 21 -1 0
-7 -4 -14 -8z"/>
<path d="M3760 986 c0 -2 7 -9 15 -16 13 -11 14 -10 9 4 -5 14 -24 23 -24 12z"/>
<path d="M3714 965 c-18 -15 -18 -15 0 -8 15 5 17 3 11 -8 -8 -12 -6 -12 8 0
34 27 16 43 -19 16z"/>
<path d="M3981 953 c7 -10 15 -20 16 -22 2 -2 3 3 3 11 0 9 -7 19 -16 22 -15
6 -15 4 -3 -11z"/>
<path d="M40 943 c0 -6 -7 -19 -16 -27 -9 -10 -11 -16 -4 -16 20 0 39 26 29
41 -5 9 -9 10 -9 2z"/>
<path d="M3676 942 c-3 -5 1 -9 9 -9 8 0 12 4 9 9 -3 4 -7 8 -9 8 -2 0 -6 -4
-9 -8z"/>
<path d="M3360 930 c0 -5 5 -10 11 -10 5 0 7 5 4 10 -3 6 -8 10 -11 10 -2 0
-4 -4 -4 -10z"/>
<path d="M672 907 c2 -15 6 -26 10 -25 10 4 37 -35 32 -44 -3 -5 0 -8 5 -8 6
0 11 12 11 26 0 14 -4 22 -10 19 -5 -3 -19 9 -30 27 l-21 33 3 -28z"/>
<path d="M563 885 c0 -7 6 -11 14 -8 7 3 13 6 13 8 0 2 -6 5 -13 8 -8 3 -14
-1 -14 -8z"/>
<path d="M260 844 c0 -8 -4 -13 -8 -10 -5 3 -9 -1 -9 -9 0 -18 9 -19 25 -3 15
15 16 38 2 38 -5 0 -10 -7 -10 -16z"/>
<path d="M2626 842 c-2 -4 1 -18 8 -31 13 -23 13 -23 18 -3 4 13 1 20 -6 19
-6 -1 -10 4 -8 11 2 13 -4 16 -12 4z"/>
<path d="M3621 837 c-10 -13 -10 -20 0 -39 7 -13 13 -26 12 -29 -1 -3 5 -6 12
-6 14 0 13 22 -5 70 -5 17 -8 17 -19 4z"/>
<path d="M290 798 c0 -19 2 -20 10 -8 13 19 13 30 0 30 -5 0 -10 -10 -10 -22z"/>
<path d="M2665 805 c-5 -11 -10 -24 -13 -30 -3 -5 3 -3 13 7 9 9 15 22 12 30
-3 9 -7 7 -12 -7z"/>
<path d="M3973 803 c9 -9 20 -13 24 -9 4 4 1 11 -7 16 -25 16 -35 11 -17 -7z"/>
<path d="M387 753 c-9 -9 -9 -43 1 -43 4 0 8 11 8 25 2 27 1 29 -9 18z"/>
<path d="M3967 708 c-15 -11 -25 -24 -21 -29 3 -5 1 -9 -4 -9 -6 0 -8 -9 -5
-20 3 -12 12 -18 24 -17 28 5 36 17 11 17 -12 0 -22 5 -22 10 0 6 5 10 11 10
6 0 8 7 5 16 -4 11 -2 15 8 11 8 -3 17 1 20 10 9 23 4 24 -27 1z"/>
<path d="M150 709 c0 -5 5 -7 10 -4 14 8 13 -1 -2 -25 -11 -17 -10 -22 0 -29
8 -4 13 -11 12 -15 -1 -4 1 -12 3 -19 3 -6 6 0 6 16 1 15 -3 27 -9 27 -5 0
-10 5 -10 11 0 5 5 7 10 4 6 -3 10 1 10 10 0 9 5 13 10 10 6 -3 10 1 10 9 0
10 -9 16 -25 16 -14 0 -25 -5 -25 -11z"/>
<path d="M3719 694 c40 -17 38 -17 38 -1 0 7 -15 13 -36 14 l-36 2 34 -15z"/>
<path d="M3050 680 c0 -5 -8 -10 -17 -11 -13 0 -11 -3 6 -10 13 -5 26 -7 29
-4 3 3 0 5 -6 5 -6 0 -9 7 -6 15 4 8 3 15 0 15 -3 0 -6 -4 -6 -10z"/>
<path d="M2850 642 c0 -6 9 -12 20 -15 11 -3 20 -3 20 -1 0 2 -9 8 -20 14 -11
6 -20 7 -20 2z"/>
<path d="M3635 630 c-3 -5 -2 -10 3 -10 6 0 8 -10 5 -22 -3 -14 -1 -18 4 -12
4 7 15 13 25 15 13 3 12 7 -7 22 -15 10 -26 13 -30 7z"/>
<path d="M3725 610 c-3 -5 -1 -10 4 -10 6 0 11 5 11 10 0 6 -2 10 -4 10 -3 0
-8 -4 -11 -10z"/>
<path d="M280 596 c0 -16 31 -66 41 -66 6 0 0 15 -12 33 -29 42 -29 41 -29 33z"/>
<path d="M3240 595 c0 -2 18 -14 40 -25 22 -11 40 -18 40 -15 0 2 -18 14 -40
25 -22 11 -40 18 -40 15z"/>
<path d="M3977 586 c-19 -14 -32 -56 -17 -56 7 0 21 23 24 40 1 3 5 11 9 18
10 15 7 15 -16 -2z"/>
<path d="M2940 548 c0 -21 16 -32 25 -17 4 5 14 8 22 5 10 -4 13 0 11 11 -4
23 -58 25 -58 1z m30 -2 c0 -3 -4 -8 -10 -11 -5 -3 -10 -1 -10 4 0 6 5 11 10
11 6 0 10 -2 10 -4z"/>
<path d="M3710 560 c0 -5 5 -10 10 -10 6 0 10 5 10 10 0 6 -4 10 -10 10 -5 0
-10 -4 -10 -10z"/>
<path d="M3639 520 c-5 -36 -3 -73 4 -77 4 -2 7 16 7 41 0 25 -2 46 -5 46 -3
0 -6 -4 -6 -10z"/>
<path d="M3010 510 c0 -7 -7 -10 -16 -6 -12 5 -15 2 -10 -10 3 -8 6 -17 6 -20
0 -2 7 -1 15 2 8 4 22 1 30 -6 24 -20 19 13 -5 35 -13 12 -20 14 -20 5z"/>
<path d="M3991 513 c-1 -6 -11 -13 -23 -16 -21 -3 -21 -4 -5 -12 21 -9 42 7
34 27 -3 8 -6 9 -6 1z"/>
<path d="M796 481 c-3 -4 6 -6 19 -3 14 2 25 6 25 8 0 8 -39 4 -44 -5z"/>
<path d="M3730 450 c-7 -5 -20 -6 -28 -3 -9 4 -13 0 -11 -12 2 -10 15 -22 29
-27 13 -5 21 -6 17 -2 -13 13 32 36 56 28 12 -3 19 -4 16 0 -12 13 -67 24 -79
16z"/>
<path d="M3435 379 c6 -33 15 -36 15 -6 0 15 -4 27 -9 27 -6 0 -8 -10 -6 -21z"/>
<path d="M521 374 c0 -11 3 -14 6 -6 3 7 2 16 -1 19 -3 4 -6 -2 -5 -13z"/>
<path d="M3676 374 c-4 -10 3 -18 24 -26 17 -5 30 -15 30 -21 0 -8 3 -8 11 0
9 9 4 18 -16 37 -32 30 -41 32 -49 10z"/>
<path d="M3975 380 c-19 -8 -19 -9 3 -9 12 -1 22 4 22 9 0 6 -1 10 -2 9 -2 0
-12 -4 -23 -9z"/>
<path d="M3878 373 c-9 -2 -19 -12 -23 -21 -5 -14 -4 -15 6 -4 7 6 22 12 34
12 11 0 26 4 34 9 9 6 6 8 -10 8 -13 0 -31 -2 -41 -4z"/>
<path d="M3788 335 c-7 -8 3 -65 12 -65 5 0 6 9 3 20 -5 18 5 25 30 21 14 -2
7 17 -9 23 -19 7 -29 8 -36 1z"/>
<path d="M3886 331 c-18 -7 -18 -8 -2 -14 25 -10 66 -9 66 2 0 4 -12 6 -26 3
-19 -3 -25 -1 -20 7 8 12 8 12 -18 2z"/>
<path d="M3700 326 c0 -2 7 -9 15 -16 13 -11 14 -10 9 4 -5 14 -24 23 -24 12z"/>
<path d="M3987 285 c-4 -8 -3 -16 1 -19 4 -3 9 4 9 15 2 23 -3 25 -10 4z"/>
<path d="M3820 276 c0 -8 5 -18 10 -21 6 -3 10 -1 10 5 0 6 5 8 11 4 7 -4 10
-1 7 7 -7 20 -38 24 -38 5z"/>
<path d="M3876 282 c-2 -4 2 -16 10 -27 8 -10 14 -14 14 -8 0 7 -5 15 -11 19
-8 4 -7 9 2 15 10 6 10 9 2 9 -6 0 -14 -3 -17 -8z"/>
<path d="M3920 230 c-9 -6 -10 -10 -3 -10 6 0 15 5 18 10 8 12 4 12 -15 0z"/>
<path d="M3853 183 c9 -2 23 -2 30 0 6 3 -1 5 -18 5 -16 0 -22 -2 -12 -5z"/>
<path d="M3815 136 c0 -29 30 -63 41 -45 5 8 3 10 -6 4 -9 -5 -10 -2 -6 12 4
12 0 26 -11 36 -17 14 -18 14 -18 -7z"/>
<path d="M3901 55 c0 -15 28 -62 29 -47 0 7 5 10 11 7 24 -16 55 -12 55 7 0
10 -4 18 -8 18 -4 0 -8 -5 -8 -10 0 -18 -54 -6 -67 15 -7 11 -12 16 -12 10z"/>
</g>
</svg>
